<mxfile host="app.diagrams.net" agent="Mozilla/5.0 (Windows NT 10.0; Win64; x64) AppleWebKit/537.36 (KHTML, like Gecko) Chrome/129.0.0.0 Safari/537.36" version="26.1.3">
  <diagram name="第 1 页" id="DeHprrIJ8amkX7loRC-t">
    <mxGraphModel dx="2010" dy="1772" grid="1" gridSize="10" guides="1" tooltips="1" connect="1" arrows="1" fold="1" page="1" pageScale="1" pageWidth="827" pageHeight="1169" math="0" shadow="0">
      <root>
        <mxCell id="0" />
        <mxCell id="1" parent="0" />
        <mxCell id="KUwgGPyPyFjpWA1K0ViN-1" value="" style="group" vertex="1" connectable="0" parent="1">
          <mxGeometry x="-690.3405336634876" y="-420.00119104408714" width="79.26053366348765" height="228.34432407478653" as="geometry" />
        </mxCell>
        <mxCell id="KUwgGPyPyFjpWA1K0ViN-2" value="" style="ellipse;whiteSpace=wrap;html=1;fillColor=#0000FF;opacity=80;" vertex="1" parent="KUwgGPyPyFjpWA1K0ViN-1">
          <mxGeometry x="55.42631517763189" y="3.7124105562822933" width="3.710087549342206" height="3.7102408248057235" as="geometry" />
        </mxCell>
        <mxCell id="KUwgGPyPyFjpWA1K0ViN-3" value="" style="ellipse;whiteSpace=wrap;html=1;fillColor=#0000FF;opacity=80;" vertex="1" parent="KUwgGPyPyFjpWA1K0ViN-1">
          <mxGeometry x="67.28640272697416" y="13.028795875971468" width="3.710087549342206" height="3.784445641301838" as="geometry" />
        </mxCell>
        <mxCell id="KUwgGPyPyFjpWA1K0ViN-4" value="" style="endArrow=none;html=1;rounded=0;exitX=0.3;exitY=0.059;exitDx=0;exitDy=0;entryX=1;entryY=1;entryDx=0;entryDy=0;exitPerimeter=0;strokeWidth=3;strokeColor=#006600;opacity=80;" edge="1" parent="KUwgGPyPyFjpWA1K0ViN-1" source="KUwgGPyPyFjpWA1K0ViN-3" target="KUwgGPyPyFjpWA1K0ViN-2">
          <mxGeometry width="50" height="50" relative="1" as="geometry">
            <mxPoint x="64.16464786513231" y="29.64361468031086" as="sourcePoint" />
            <mxPoint x="67.87473541447454" y="25.933373855505238" as="targetPoint" />
          </mxGeometry>
        </mxCell>
        <mxCell id="KUwgGPyPyFjpWA1K0ViN-5" value="" style="ellipse;whiteSpace=wrap;html=1;fillColor=#0000FF;opacity=80;" vertex="1" parent="KUwgGPyPyFjpWA1K0ViN-1">
          <mxGeometry x="60.748420236842605" y="32.62313303069948" width="3.710087549342206" height="3.784445641301838" as="geometry" />
        </mxCell>
        <mxCell id="KUwgGPyPyFjpWA1K0ViN-6" value="" style="ellipse;whiteSpace=wrap;html=1;fillColor=#0000FF;opacity=80;" vertex="1" parent="KUwgGPyPyFjpWA1K0ViN-1">
          <mxGeometry x="75.55044611414544" y="41.217229360621786" width="3.710087549342206" height="3.784445641301838" as="geometry" />
        </mxCell>
        <mxCell id="KUwgGPyPyFjpWA1K0ViN-7" value="" style="ellipse;whiteSpace=wrap;html=1;fillColor=#0000FF;opacity=80;" vertex="1" parent="KUwgGPyPyFjpWA1K0ViN-1">
          <mxGeometry x="41.13017509868456" y="36.40722936062184" width="3.710087549342206" height="3.784445641301838" as="geometry" />
        </mxCell>
        <mxCell id="KUwgGPyPyFjpWA1K0ViN-8" value="" style="endArrow=none;html=1;rounded=0;entryX=0.7;entryY=0.974;entryDx=0;entryDy=0;strokeWidth=3;entryPerimeter=0;exitX=0.5;exitY=0;exitDx=0;exitDy=0;fontSize=11;fillColor=#0000FF;strokeColor=#006600;opacity=80;" edge="1" parent="KUwgGPyPyFjpWA1K0ViN-1" source="KUwgGPyPyFjpWA1K0ViN-5" target="KUwgGPyPyFjpWA1K0ViN-3">
          <mxGeometry width="50" height="50" relative="1" as="geometry">
            <mxPoint x="64.313051367106" y="17.770844040932616" as="sourcePoint" />
            <mxPoint x="62.680439920415864" y="14.802478448964393" as="targetPoint" />
          </mxGeometry>
        </mxCell>
        <mxCell id="KUwgGPyPyFjpWA1K0ViN-9" value="" style="edgeStyle=none;orthogonalLoop=1;jettySize=auto;html=1;rounded=0;labelBackgroundColor=default;strokeColor=#005700;strokeWidth=3;fontFamily=Helvetica;fontSize=11;fontColor=default;endArrow=none;shape=connector;exitX=1;exitY=0.5;exitDx=0;exitDy=0;entryX=0;entryY=0.5;entryDx=0;entryDy=0;opacity=80;fillColor=#008a00;" edge="1" parent="KUwgGPyPyFjpWA1K0ViN-1" source="KUwgGPyPyFjpWA1K0ViN-7" target="KUwgGPyPyFjpWA1K0ViN-5">
          <mxGeometry width="100" relative="1" as="geometry">
            <mxPoint x="49.32429766776349" y="26.310334323305483" as="sourcePoint" />
            <mxPoint x="55.03783249375053" y="25.413940140032423" as="targetPoint" />
            <Array as="points" />
          </mxGeometry>
        </mxCell>
        <mxCell id="KUwgGPyPyFjpWA1K0ViN-10" value="" style="edgeStyle=none;orthogonalLoop=1;jettySize=auto;html=1;rounded=0;labelBackgroundColor=default;strokeColor=#006600;strokeWidth=3;fontFamily=Helvetica;fontSize=11;fontColor=default;endArrow=none;shape=connector;exitX=1;exitY=0.5;exitDx=0;exitDy=0;entryX=0.02;entryY=0.386;entryDx=0;entryDy=0;entryPerimeter=0;opacity=80;" edge="1" parent="KUwgGPyPyFjpWA1K0ViN-1" source="KUwgGPyPyFjpWA1K0ViN-5" target="KUwgGPyPyFjpWA1K0ViN-6">
          <mxGeometry width="100" relative="1" as="geometry">
            <mxPoint x="60.454560315790076" y="33.3538555051166" as="sourcePoint" />
            <mxPoint x="67.87473541447454" y="33.3538555051166" as="targetPoint" />
            <Array as="points" />
          </mxGeometry>
        </mxCell>
        <mxCell id="KUwgGPyPyFjpWA1K0ViN-11" value="" style="ellipse;whiteSpace=wrap;html=1;fillColor=#0000FF;opacity=80;" vertex="1" parent="KUwgGPyPyFjpWA1K0ViN-1">
          <mxGeometry x="48.57842023684256" y="49.55975917519436" width="3.710087549342206" height="3.784445641301838" as="geometry" />
        </mxCell>
        <mxCell id="KUwgGPyPyFjpWA1K0ViN-12" value="" style="edgeStyle=none;orthogonalLoop=1;jettySize=auto;html=1;rounded=0;labelBackgroundColor=default;strokeColor=#006600;strokeWidth=3;fontFamily=Helvetica;fontSize=11;fontColor=default;endArrow=none;shape=connector;exitX=0.5;exitY=0;exitDx=0;exitDy=0;entryX=0.5;entryY=1;entryDx=0;entryDy=0;opacity=80;" edge="1" parent="KUwgGPyPyFjpWA1K0ViN-1" source="KUwgGPyPyFjpWA1K0ViN-11" target="KUwgGPyPyFjpWA1K0ViN-5">
          <mxGeometry width="100" relative="1" as="geometry">
            <mxPoint x="60.454560315790076" y="39.29024082480578" as="sourcePoint" />
            <mxPoint x="67.87473541447454" y="39.29024082480578" as="targetPoint" />
            <Array as="points" />
          </mxGeometry>
        </mxCell>
        <mxCell id="KUwgGPyPyFjpWA1K0ViN-13" value="" style="ellipse;whiteSpace=wrap;html=1;fillColor=#0000FF;opacity=80;" vertex="1" parent="KUwgGPyPyFjpWA1K0ViN-1">
          <mxGeometry x="72.58044611414545" y="84.57180734015537" width="3.710087549342206" height="3.784445641301838" as="geometry" />
        </mxCell>
        <mxCell id="KUwgGPyPyFjpWA1K0ViN-14" value="" style="edgeStyle=none;orthogonalLoop=1;jettySize=auto;html=1;rounded=0;labelBackgroundColor=default;strokeColor=#006600;strokeWidth=3;fontFamily=Helvetica;fontSize=11;fontColor=default;endArrow=none;shape=connector;exitX=1;exitY=1;exitDx=0;exitDy=0;opacity=80;" edge="1" parent="KUwgGPyPyFjpWA1K0ViN-1" source="KUwgGPyPyFjpWA1K0ViN-6" target="KUwgGPyPyFjpWA1K0ViN-13">
          <mxGeometry width="100" relative="1" as="geometry">
            <mxPoint x="73.81087549342212" y="35.58000000000004" as="sourcePoint" />
            <mxPoint x="81.23105059210647" y="35.58000000000004" as="targetPoint" />
            <Array as="points" />
          </mxGeometry>
        </mxCell>
        <mxCell id="KUwgGPyPyFjpWA1K0ViN-15" value="" style="ellipse;whiteSpace=wrap;html=1;fillColor=#0000FF;opacity=80;" vertex="1" parent="KUwgGPyPyFjpWA1K0ViN-1">
          <mxGeometry x="59.77219260855287" y="127.78590243902443" width="3.710087549342206" height="3.784445641301838" as="geometry" />
        </mxCell>
        <mxCell id="KUwgGPyPyFjpWA1K0ViN-16" value="" style="edgeStyle=none;orthogonalLoop=1;jettySize=auto;html=1;rounded=0;labelBackgroundColor=default;strokeColor=#006600;strokeWidth=3;fontFamily=Helvetica;fontSize=11;fontColor=default;endArrow=none;shape=connector;opacity=80;exitX=0.584;exitY=0.29;exitDx=0;exitDy=0;exitPerimeter=0;" edge="1" parent="KUwgGPyPyFjpWA1K0ViN-1" source="KUwgGPyPyFjpWA1K0ViN-15" target="KUwgGPyPyFjpWA1K0ViN-13">
          <mxGeometry width="100" relative="1" as="geometry">
            <mxPoint x="71.71053366348767" y="124.00119104408714" as="sourcePoint" />
            <mxPoint x="79.74701557236958" y="45.22662614449496" as="targetPoint" />
            <Array as="points" />
          </mxGeometry>
        </mxCell>
        <mxCell id="KUwgGPyPyFjpWA1K0ViN-17" value="" style="ellipse;whiteSpace=wrap;html=1;fillColor=#0000FF;opacity=80;" vertex="1" parent="KUwgGPyPyFjpWA1K0ViN-1">
          <mxGeometry x="7.710087549342205" y="29.833614680310916" width="3.710087549342206" height="3.784445641301838" as="geometry" />
        </mxCell>
        <mxCell id="KUwgGPyPyFjpWA1K0ViN-39" style="rounded=0;orthogonalLoop=1;jettySize=auto;html=1;exitX=1;exitY=0.5;exitDx=0;exitDy=0;entryX=0;entryY=0.5;entryDx=0;entryDy=0;dashed=1;" edge="1" parent="KUwgGPyPyFjpWA1K0ViN-1" source="KUwgGPyPyFjpWA1K0ViN-18" target="KUwgGPyPyFjpWA1K0ViN-2">
          <mxGeometry relative="1" as="geometry" />
        </mxCell>
        <mxCell id="KUwgGPyPyFjpWA1K0ViN-40" style="rounded=0;orthogonalLoop=1;jettySize=auto;html=1;exitX=1;exitY=1;exitDx=0;exitDy=0;entryX=0.5;entryY=0;entryDx=0;entryDy=0;dashed=1;" edge="1" parent="KUwgGPyPyFjpWA1K0ViN-1" source="KUwgGPyPyFjpWA1K0ViN-18" target="KUwgGPyPyFjpWA1K0ViN-7">
          <mxGeometry relative="1" as="geometry" />
        </mxCell>
        <mxCell id="KUwgGPyPyFjpWA1K0ViN-41" style="rounded=0;orthogonalLoop=1;jettySize=auto;html=1;exitX=1;exitY=1;exitDx=0;exitDy=0;entryX=0;entryY=0;entryDx=0;entryDy=0;dashed=1;" edge="1" parent="KUwgGPyPyFjpWA1K0ViN-1" source="KUwgGPyPyFjpWA1K0ViN-18" target="KUwgGPyPyFjpWA1K0ViN-27">
          <mxGeometry relative="1" as="geometry" />
        </mxCell>
        <mxCell id="KUwgGPyPyFjpWA1K0ViN-18" value="" style="ellipse;whiteSpace=wrap;html=1;fillColor=#0000FF;opacity=80;" vertex="1" parent="KUwgGPyPyFjpWA1K0ViN-1">
          <mxGeometry width="3.710087549342206" height="3.784445641301838" as="geometry" />
        </mxCell>
        <mxCell id="KUwgGPyPyFjpWA1K0ViN-19" value="" style="edgeStyle=none;orthogonalLoop=1;jettySize=auto;html=1;rounded=0;labelBackgroundColor=default;strokeColor=#FF66B3;strokeWidth=3;fontFamily=Helvetica;fontSize=11;fontColor=default;endArrow=none;shape=connector;opacity=80;exitX=0.673;exitY=1.226;exitDx=0;exitDy=0;exitPerimeter=0;" edge="1" parent="KUwgGPyPyFjpWA1K0ViN-1" source="KUwgGPyPyFjpWA1K0ViN-18" target="KUwgGPyPyFjpWA1K0ViN-17">
          <mxGeometry width="100" relative="1" as="geometry">
            <mxPoint x="7.7105336634876664" y="4.001191044087136" as="sourcePoint" />
            <mxPoint x="54.518420236842616" y="44.48457797953381" as="targetPoint" />
            <Array as="points" />
          </mxGeometry>
        </mxCell>
        <mxCell id="KUwgGPyPyFjpWA1K0ViN-20" value="" style="edgeStyle=none;orthogonalLoop=1;jettySize=auto;html=1;rounded=0;labelBackgroundColor=default;strokeColor=#005700;strokeWidth=3;fontFamily=Helvetica;fontSize=11;fontColor=default;endArrow=none;shape=connector;exitX=0.677;exitY=0.061;exitDx=0;exitDy=0;exitPerimeter=0;opacity=80;entryX=0.5;entryY=1;entryDx=0;entryDy=0;fillColor=#008a00;" edge="1" parent="KUwgGPyPyFjpWA1K0ViN-1" source="KUwgGPyPyFjpWA1K0ViN-17" target="KUwgGPyPyFjpWA1K0ViN-7">
          <mxGeometry width="100" relative="1" as="geometry">
            <mxPoint x="44.87219260855281" y="29.64361468031086" as="sourcePoint" />
            <mxPoint x="44.649587355592274" y="26.972241286450753" as="targetPoint" />
            <Array as="points" />
          </mxGeometry>
        </mxCell>
        <mxCell id="KUwgGPyPyFjpWA1K0ViN-21" value="" style="ellipse;whiteSpace=wrap;html=1;fillColor=#0000FF;opacity=80;" vertex="1" parent="KUwgGPyPyFjpWA1K0ViN-1">
          <mxGeometry x="50.1584202368426" y="88.70457797953384" width="3.710087549342206" height="3.784445641301838" as="geometry" />
        </mxCell>
        <mxCell id="KUwgGPyPyFjpWA1K0ViN-22" value="" style="edgeStyle=none;orthogonalLoop=1;jettySize=auto;html=1;rounded=0;labelBackgroundColor=default;strokeColor=#006600;strokeWidth=3;fontFamily=Helvetica;fontSize=11;fontColor=default;endArrow=none;shape=connector;exitX=0.5;exitY=0;exitDx=0;exitDy=0;entryX=0.5;entryY=1;entryDx=0;entryDy=0;opacity=80;" edge="1" parent="KUwgGPyPyFjpWA1K0ViN-1" source="KUwgGPyPyFjpWA1K0ViN-21" target="KUwgGPyPyFjpWA1K0ViN-11">
          <mxGeometry width="100" relative="1" as="geometry">
            <mxPoint x="62.680612845395416" y="48.19481880433955" as="sourcePoint" />
            <mxPoint x="70.10078794407988" y="48.19481880433955" as="targetPoint" />
            <Array as="points" />
          </mxGeometry>
        </mxCell>
        <mxCell id="KUwgGPyPyFjpWA1K0ViN-23" value="" style="ellipse;whiteSpace=wrap;html=1;fillColor=#0000FF;opacity=80;" vertex="1" parent="KUwgGPyPyFjpWA1K0ViN-1">
          <mxGeometry x="56.06540233947436" y="111.48457797953381" width="3.710087549342206" height="3.784445641301838" as="geometry" />
        </mxCell>
        <mxCell id="KUwgGPyPyFjpWA1K0ViN-24" value="" style="ellipse;whiteSpace=wrap;html=1;fillColor=#0000FF;opacity=80;" vertex="1" parent="KUwgGPyPyFjpWA1K0ViN-1">
          <mxGeometry x="38.711438134210766" y="108.70457797953384" width="3.710087549342206" height="3.784445641301838" as="geometry" />
        </mxCell>
        <mxCell id="KUwgGPyPyFjpWA1K0ViN-25" value="" style="edgeStyle=none;orthogonalLoop=1;jettySize=auto;html=1;rounded=0;labelBackgroundColor=default;strokeColor=#006600;strokeWidth=3;fontFamily=Helvetica;fontSize=11;fontColor=default;endArrow=none;shape=connector;entryX=0;entryY=0.5;entryDx=0;entryDy=0;exitX=1;exitY=0.5;exitDx=0;exitDy=0;opacity=80;" edge="1" parent="KUwgGPyPyFjpWA1K0ViN-1" source="KUwgGPyPyFjpWA1K0ViN-24" target="KUwgGPyPyFjpWA1K0ViN-21">
          <mxGeometry width="100" relative="1" as="geometry">
            <mxPoint x="51.55035019736883" y="46.344892729091384" as="sourcePoint" />
            <mxPoint x="58.970525296053296" y="46.344892729091384" as="targetPoint" />
            <Array as="points" />
          </mxGeometry>
        </mxCell>
        <mxCell id="KUwgGPyPyFjpWA1K0ViN-26" value="" style="edgeStyle=none;orthogonalLoop=1;jettySize=auto;html=1;rounded=0;labelBackgroundColor=default;strokeColor=#006600;strokeWidth=3;fontFamily=Helvetica;fontSize=11;fontColor=default;endArrow=none;shape=connector;exitX=1;exitY=0.5;exitDx=0;exitDy=0;entryX=0;entryY=0.5;entryDx=0;entryDy=0;opacity=80;" edge="1" parent="KUwgGPyPyFjpWA1K0ViN-1" source="KUwgGPyPyFjpWA1K0ViN-21" target="KUwgGPyPyFjpWA1K0ViN-23">
          <mxGeometry width="100" relative="1" as="geometry">
            <mxPoint x="55.26043774671106" y="56.357348618912056" as="sourcePoint" />
            <mxPoint x="62.680612845395416" y="56.357348618912056" as="targetPoint" />
            <Array as="points" />
          </mxGeometry>
        </mxCell>
        <mxCell id="KUwgGPyPyFjpWA1K0ViN-27" value="" style="ellipse;whiteSpace=wrap;html=1;fillColor=#0000FF;opacity=80;" vertex="1" parent="KUwgGPyPyFjpWA1K0ViN-1">
          <mxGeometry x="33.71421011842119" y="160.21987843348472" width="3.710087549342206" height="3.784445641301838" as="geometry" />
        </mxCell>
        <mxCell id="KUwgGPyPyFjpWA1K0ViN-28" value="" style="ellipse;whiteSpace=wrap;html=1;fillColor=#0000FF;opacity=80;" vertex="1" parent="KUwgGPyPyFjpWA1K0ViN-1">
          <mxGeometry x="45.712630355263855" y="161.21987843348472" width="3.710087549342206" height="3.784445641301838" as="geometry" />
        </mxCell>
        <mxCell id="KUwgGPyPyFjpWA1K0ViN-29" value="" style="edgeStyle=none;orthogonalLoop=1;jettySize=auto;html=1;rounded=0;labelBackgroundColor=default;strokeColor=#006600;strokeWidth=3;fontFamily=Helvetica;fontSize=11;fontColor=default;endArrow=none;shape=connector;exitX=0.5;exitY=0;exitDx=0;exitDy=0;opacity=80;" edge="1" parent="KUwgGPyPyFjpWA1K0ViN-1" source="KUwgGPyPyFjpWA1K0ViN-27" target="KUwgGPyPyFjpWA1K0ViN-24">
          <mxGeometry width="100" relative="1" as="geometry">
            <mxPoint x="53.77640272697417" y="59.32554127875676" as="sourcePoint" />
            <mxPoint x="61.19657782565852" y="59.32554127875676" as="targetPoint" />
            <Array as="points" />
          </mxGeometry>
        </mxCell>
        <mxCell id="KUwgGPyPyFjpWA1K0ViN-30" value="" style="edgeStyle=none;orthogonalLoop=1;jettySize=auto;html=1;rounded=0;labelBackgroundColor=default;strokeColor=#006600;strokeWidth=3;fontFamily=Helvetica;fontSize=11;fontColor=default;endArrow=none;shape=connector;exitX=0.5;exitY=1;exitDx=0;exitDy=0;opacity=80;" edge="1" parent="KUwgGPyPyFjpWA1K0ViN-1" source="KUwgGPyPyFjpWA1K0ViN-23" target="KUwgGPyPyFjpWA1K0ViN-28">
          <mxGeometry width="100" relative="1" as="geometry">
            <mxPoint x="61.19657782565852" y="60.809637608679054" as="sourcePoint" />
            <mxPoint x="68.61675292434299" y="60.809637608679054" as="targetPoint" />
            <Array as="points" />
          </mxGeometry>
        </mxCell>
        <mxCell id="KUwgGPyPyFjpWA1K0ViN-31" value="" style="ellipse;whiteSpace=wrap;html=1;fillColor=#0000FF;opacity=80;" vertex="1" parent="KUwgGPyPyFjpWA1K0ViN-1">
          <mxGeometry x="37.42263035526392" y="209.0046972378242" width="3.710087549342206" height="3.784445641301838" as="geometry" />
        </mxCell>
        <mxCell id="KUwgGPyPyFjpWA1K0ViN-32" value="" style="edgeStyle=none;orthogonalLoop=1;jettySize=auto;html=1;rounded=0;labelBackgroundColor=default;strokeColor=#006600;strokeWidth=3;fontFamily=Helvetica;fontSize=11;fontColor=default;endArrow=none;shape=connector;entryX=0.5;entryY=1;entryDx=0;entryDy=0;opacity=80;exitX=0;exitY=0;exitDx=0;exitDy=0;" edge="1" parent="KUwgGPyPyFjpWA1K0ViN-1" source="KUwgGPyPyFjpWA1K0ViN-33" target="KUwgGPyPyFjpWA1K0ViN-27">
          <mxGeometry width="100" relative="1" as="geometry">
            <mxPoint x="48.710533663487666" y="206.00119104408714" as="sourcePoint" />
            <mxPoint x="57.4864902763164" y="80.10288989766877" as="targetPoint" />
            <Array as="points" />
          </mxGeometry>
        </mxCell>
        <mxCell id="KUwgGPyPyFjpWA1K0ViN-33" value="" style="ellipse;whiteSpace=wrap;html=1;fillColor=#0000FF;opacity=80;" vertex="1" parent="KUwgGPyPyFjpWA1K0ViN-1">
          <mxGeometry x="57.03850778618485" y="205.21674540278536" width="3.710087549342206" height="3.784445641301838" as="geometry" />
        </mxCell>
        <mxCell id="KUwgGPyPyFjpWA1K0ViN-34" value="" style="edgeStyle=none;orthogonalLoop=1;jettySize=auto;html=1;rounded=0;labelBackgroundColor=default;strokeColor=#A50040;strokeWidth=3;fontFamily=Helvetica;fontSize=11;fontColor=default;endArrow=none;shape=connector;exitX=0;exitY=1;exitDx=0;exitDy=0;opacity=80;entryX=1;entryY=0;entryDx=0;entryDy=0;fillColor=#d80073;" edge="1" parent="KUwgGPyPyFjpWA1K0ViN-1" source="KUwgGPyPyFjpWA1K0ViN-33" target="KUwgGPyPyFjpWA1K0ViN-31">
          <mxGeometry width="100" relative="1" as="geometry">
            <mxPoint x="56.744472766447956" y="91.23361237208587" as="sourcePoint" />
            <mxPoint x="64.16464786513231" y="91.23361237208587" as="targetPoint" />
            <Array as="points" />
          </mxGeometry>
        </mxCell>
        <mxCell id="KUwgGPyPyFjpWA1K0ViN-35" value="" style="ellipse;whiteSpace=wrap;html=1;fillColor=#0000FF;opacity=80;" vertex="1" parent="KUwgGPyPyFjpWA1K0ViN-1">
          <mxGeometry x="73.71263035526388" y="208.9998784334847" width="3.710087549342206" height="3.784445641301838" as="geometry" />
        </mxCell>
        <mxCell id="KUwgGPyPyFjpWA1K0ViN-36" value="" style="ellipse;whiteSpace=wrap;html=1;fillColor=#0000FF;opacity=80;" vertex="1" parent="KUwgGPyPyFjpWA1K0ViN-1">
          <mxGeometry x="54.23263035526389" y="224.55987843348464" width="3.710087549342206" height="3.784445641301838" as="geometry" />
        </mxCell>
        <mxCell id="KUwgGPyPyFjpWA1K0ViN-37" value="" style="endArrow=none;html=1;rounded=0;exitX=0.5;exitY=1;exitDx=0;exitDy=0;entryX=0.5;entryY=0;entryDx=0;entryDy=0;strokeColor=#006600;strokeWidth=3;opacity=80;" edge="1" parent="KUwgGPyPyFjpWA1K0ViN-1" source="KUwgGPyPyFjpWA1K0ViN-28" target="KUwgGPyPyFjpWA1K0ViN-35">
          <mxGeometry width="50" height="50" relative="1" as="geometry">
            <mxPoint x="114.71053366348767" y="184.00119104408714" as="sourcePoint" />
            <mxPoint x="164.71053366348767" y="134.00119104408714" as="targetPoint" />
          </mxGeometry>
        </mxCell>
        <mxCell id="KUwgGPyPyFjpWA1K0ViN-38" value="" style="endArrow=none;html=1;rounded=0;entryX=0.5;entryY=1;entryDx=0;entryDy=0;exitX=1;exitY=0.5;exitDx=0;exitDy=0;strokeColor=#006600;strokeWidth=3;opacity=80;" edge="1" parent="KUwgGPyPyFjpWA1K0ViN-1" source="KUwgGPyPyFjpWA1K0ViN-36" target="KUwgGPyPyFjpWA1K0ViN-35">
          <mxGeometry width="50" height="50" relative="1" as="geometry">
            <mxPoint x="34.710533663487666" y="224.00119104408714" as="sourcePoint" />
            <mxPoint x="84.71053366348767" y="174.00119104408714" as="targetPoint" />
          </mxGeometry>
        </mxCell>
        <mxCell id="KUwgGPyPyFjpWA1K0ViN-156" value="" style="group" vertex="1" connectable="0" parent="1">
          <mxGeometry x="-510.00053366348754" y="-500.00119104408714" width="271.40053366348764" height="378.3443240747865" as="geometry" />
        </mxCell>
        <mxCell id="KUwgGPyPyFjpWA1K0ViN-42" value="" style="group" vertex="1" connectable="0" parent="KUwgGPyPyFjpWA1K0ViN-156">
          <mxGeometry width="79.26053366348765" height="228.34432407478653" as="geometry" />
        </mxCell>
        <mxCell id="KUwgGPyPyFjpWA1K0ViN-43" value="" style="ellipse;whiteSpace=wrap;html=1;fillColor=#0000FF;opacity=80;" vertex="1" parent="KUwgGPyPyFjpWA1K0ViN-42">
          <mxGeometry x="55.42631517763189" y="3.7124105562822933" width="3.710087549342206" height="3.7102408248057235" as="geometry" />
        </mxCell>
        <mxCell id="KUwgGPyPyFjpWA1K0ViN-44" value="" style="ellipse;whiteSpace=wrap;html=1;fillColor=#0000FF;opacity=80;" vertex="1" parent="KUwgGPyPyFjpWA1K0ViN-42">
          <mxGeometry x="67.28640272697416" y="13.028795875971468" width="3.710087549342206" height="3.784445641301838" as="geometry" />
        </mxCell>
        <mxCell id="KUwgGPyPyFjpWA1K0ViN-45" value="" style="endArrow=none;html=1;rounded=0;exitX=0.3;exitY=0.059;exitDx=0;exitDy=0;entryX=1;entryY=1;entryDx=0;entryDy=0;exitPerimeter=0;strokeWidth=3;strokeColor=#006600;opacity=80;" edge="1" parent="KUwgGPyPyFjpWA1K0ViN-42" source="KUwgGPyPyFjpWA1K0ViN-44" target="KUwgGPyPyFjpWA1K0ViN-43">
          <mxGeometry width="50" height="50" relative="1" as="geometry">
            <mxPoint x="64.16464786513231" y="29.64361468031086" as="sourcePoint" />
            <mxPoint x="67.87473541447454" y="25.933373855505238" as="targetPoint" />
          </mxGeometry>
        </mxCell>
        <mxCell id="KUwgGPyPyFjpWA1K0ViN-46" value="" style="ellipse;whiteSpace=wrap;html=1;fillColor=#0000FF;opacity=80;" vertex="1" parent="KUwgGPyPyFjpWA1K0ViN-42">
          <mxGeometry x="60.748420236842605" y="32.62313303069948" width="3.710087549342206" height="3.784445641301838" as="geometry" />
        </mxCell>
        <mxCell id="KUwgGPyPyFjpWA1K0ViN-47" value="" style="ellipse;whiteSpace=wrap;html=1;fillColor=#0000FF;opacity=80;" vertex="1" parent="KUwgGPyPyFjpWA1K0ViN-42">
          <mxGeometry x="75.55044611414544" y="41.217229360621786" width="3.710087549342206" height="3.784445641301838" as="geometry" />
        </mxCell>
        <mxCell id="KUwgGPyPyFjpWA1K0ViN-48" value="" style="ellipse;whiteSpace=wrap;html=1;fillColor=#0000FF;opacity=80;" vertex="1" parent="KUwgGPyPyFjpWA1K0ViN-42">
          <mxGeometry x="41.13017509868456" y="36.40722936062184" width="3.710087549342206" height="3.784445641301838" as="geometry" />
        </mxCell>
        <mxCell id="KUwgGPyPyFjpWA1K0ViN-49" value="" style="endArrow=none;html=1;rounded=0;entryX=0.7;entryY=0.974;entryDx=0;entryDy=0;strokeWidth=3;entryPerimeter=0;exitX=0.5;exitY=0;exitDx=0;exitDy=0;fontSize=11;fillColor=#0000FF;strokeColor=#006600;opacity=80;" edge="1" parent="KUwgGPyPyFjpWA1K0ViN-42" source="KUwgGPyPyFjpWA1K0ViN-46" target="KUwgGPyPyFjpWA1K0ViN-44">
          <mxGeometry width="50" height="50" relative="1" as="geometry">
            <mxPoint x="64.313051367106" y="17.770844040932616" as="sourcePoint" />
            <mxPoint x="62.680439920415864" y="14.802478448964393" as="targetPoint" />
          </mxGeometry>
        </mxCell>
        <mxCell id="KUwgGPyPyFjpWA1K0ViN-50" value="" style="edgeStyle=none;orthogonalLoop=1;jettySize=auto;html=1;rounded=0;labelBackgroundColor=default;strokeColor=#005700;strokeWidth=3;fontFamily=Helvetica;fontSize=11;fontColor=default;endArrow=none;shape=connector;exitX=1;exitY=0.5;exitDx=0;exitDy=0;entryX=0;entryY=0.5;entryDx=0;entryDy=0;opacity=80;fillColor=#008a00;" edge="1" parent="KUwgGPyPyFjpWA1K0ViN-42" source="KUwgGPyPyFjpWA1K0ViN-48" target="KUwgGPyPyFjpWA1K0ViN-46">
          <mxGeometry width="100" relative="1" as="geometry">
            <mxPoint x="49.32429766776349" y="26.310334323305483" as="sourcePoint" />
            <mxPoint x="55.03783249375053" y="25.413940140032423" as="targetPoint" />
            <Array as="points" />
          </mxGeometry>
        </mxCell>
        <mxCell id="KUwgGPyPyFjpWA1K0ViN-51" value="" style="edgeStyle=none;orthogonalLoop=1;jettySize=auto;html=1;rounded=0;labelBackgroundColor=default;strokeColor=#006600;strokeWidth=3;fontFamily=Helvetica;fontSize=11;fontColor=default;endArrow=none;shape=connector;exitX=1;exitY=0.5;exitDx=0;exitDy=0;entryX=0.02;entryY=0.386;entryDx=0;entryDy=0;entryPerimeter=0;opacity=80;" edge="1" parent="KUwgGPyPyFjpWA1K0ViN-42" source="KUwgGPyPyFjpWA1K0ViN-46" target="KUwgGPyPyFjpWA1K0ViN-47">
          <mxGeometry width="100" relative="1" as="geometry">
            <mxPoint x="60.454560315790076" y="33.3538555051166" as="sourcePoint" />
            <mxPoint x="67.87473541447454" y="33.3538555051166" as="targetPoint" />
            <Array as="points" />
          </mxGeometry>
        </mxCell>
        <mxCell id="KUwgGPyPyFjpWA1K0ViN-52" value="" style="ellipse;whiteSpace=wrap;html=1;fillColor=#0000FF;opacity=80;" vertex="1" parent="KUwgGPyPyFjpWA1K0ViN-42">
          <mxGeometry x="48.57842023684256" y="49.55975917519436" width="3.710087549342206" height="3.784445641301838" as="geometry" />
        </mxCell>
        <mxCell id="KUwgGPyPyFjpWA1K0ViN-53" value="" style="edgeStyle=none;orthogonalLoop=1;jettySize=auto;html=1;rounded=0;labelBackgroundColor=default;strokeColor=#006600;strokeWidth=3;fontFamily=Helvetica;fontSize=11;fontColor=default;endArrow=none;shape=connector;exitX=0.5;exitY=0;exitDx=0;exitDy=0;entryX=0.5;entryY=1;entryDx=0;entryDy=0;opacity=80;" edge="1" parent="KUwgGPyPyFjpWA1K0ViN-42" source="KUwgGPyPyFjpWA1K0ViN-52" target="KUwgGPyPyFjpWA1K0ViN-46">
          <mxGeometry width="100" relative="1" as="geometry">
            <mxPoint x="60.454560315790076" y="39.29024082480578" as="sourcePoint" />
            <mxPoint x="67.87473541447454" y="39.29024082480578" as="targetPoint" />
            <Array as="points" />
          </mxGeometry>
        </mxCell>
        <mxCell id="KUwgGPyPyFjpWA1K0ViN-54" value="" style="ellipse;whiteSpace=wrap;html=1;fillColor=#0000FF;opacity=80;" vertex="1" parent="KUwgGPyPyFjpWA1K0ViN-42">
          <mxGeometry x="72.58044611414545" y="84.57180734015537" width="3.710087549342206" height="3.784445641301838" as="geometry" />
        </mxCell>
        <mxCell id="KUwgGPyPyFjpWA1K0ViN-55" value="" style="edgeStyle=none;orthogonalLoop=1;jettySize=auto;html=1;rounded=0;labelBackgroundColor=default;strokeColor=#006600;strokeWidth=3;fontFamily=Helvetica;fontSize=11;fontColor=default;endArrow=none;shape=connector;exitX=1;exitY=1;exitDx=0;exitDy=0;opacity=80;" edge="1" parent="KUwgGPyPyFjpWA1K0ViN-42" source="KUwgGPyPyFjpWA1K0ViN-47" target="KUwgGPyPyFjpWA1K0ViN-54">
          <mxGeometry width="100" relative="1" as="geometry">
            <mxPoint x="73.81087549342212" y="35.58000000000004" as="sourcePoint" />
            <mxPoint x="81.23105059210647" y="35.58000000000004" as="targetPoint" />
            <Array as="points" />
          </mxGeometry>
        </mxCell>
        <mxCell id="KUwgGPyPyFjpWA1K0ViN-56" value="" style="ellipse;whiteSpace=wrap;html=1;fillColor=#0000FF;opacity=80;" vertex="1" parent="KUwgGPyPyFjpWA1K0ViN-42">
          <mxGeometry x="59.77219260855287" y="127.78590243902443" width="3.710087549342206" height="3.784445641301838" as="geometry" />
        </mxCell>
        <mxCell id="KUwgGPyPyFjpWA1K0ViN-57" value="" style="edgeStyle=none;orthogonalLoop=1;jettySize=auto;html=1;rounded=0;labelBackgroundColor=default;strokeColor=#006600;strokeWidth=3;fontFamily=Helvetica;fontSize=11;fontColor=default;endArrow=none;shape=connector;opacity=80;exitX=0.584;exitY=0.29;exitDx=0;exitDy=0;exitPerimeter=0;" edge="1" parent="KUwgGPyPyFjpWA1K0ViN-42" source="KUwgGPyPyFjpWA1K0ViN-56" target="KUwgGPyPyFjpWA1K0ViN-54">
          <mxGeometry width="100" relative="1" as="geometry">
            <mxPoint x="71.71053366348767" y="124.00119104408714" as="sourcePoint" />
            <mxPoint x="79.74701557236958" y="45.22662614449496" as="targetPoint" />
            <Array as="points" />
          </mxGeometry>
        </mxCell>
        <mxCell id="KUwgGPyPyFjpWA1K0ViN-58" value="" style="ellipse;whiteSpace=wrap;html=1;fillColor=#0000FF;opacity=80;" vertex="1" parent="KUwgGPyPyFjpWA1K0ViN-42">
          <mxGeometry x="7.710087549342205" y="29.833614680310916" width="3.710087549342206" height="3.784445641301838" as="geometry" />
        </mxCell>
        <mxCell id="KUwgGPyPyFjpWA1K0ViN-157" style="rounded=0;orthogonalLoop=1;jettySize=auto;html=1;exitX=1;exitY=1;exitDx=0;exitDy=0;dashed=1;" edge="1" parent="KUwgGPyPyFjpWA1K0ViN-42" source="KUwgGPyPyFjpWA1K0ViN-59">
          <mxGeometry relative="1" as="geometry">
            <mxPoint x="100.00053366348754" y="70.00119104408714" as="targetPoint" />
          </mxGeometry>
        </mxCell>
        <mxCell id="KUwgGPyPyFjpWA1K0ViN-161" style="edgeStyle=none;rounded=0;orthogonalLoop=1;jettySize=auto;html=1;exitX=1;exitY=1;exitDx=0;exitDy=0;entryX=0;entryY=0.5;entryDx=0;entryDy=0;dashed=1;fillColor=#f8cecc;strokeColor=#b85450;" edge="1" parent="KUwgGPyPyFjpWA1K0ViN-42" source="KUwgGPyPyFjpWA1K0ViN-59" target="KUwgGPyPyFjpWA1K0ViN-43">
          <mxGeometry relative="1" as="geometry" />
        </mxCell>
        <mxCell id="KUwgGPyPyFjpWA1K0ViN-162" style="edgeStyle=none;rounded=0;orthogonalLoop=1;jettySize=auto;html=1;exitX=0.5;exitY=1;exitDx=0;exitDy=0;dashed=1;fillColor=#f8cecc;strokeColor=#b85450;" edge="1" parent="KUwgGPyPyFjpWA1K0ViN-42" source="KUwgGPyPyFjpWA1K0ViN-59">
          <mxGeometry relative="1" as="geometry">
            <mxPoint x="40.000533663487545" y="110.00119104408725" as="targetPoint" />
          </mxGeometry>
        </mxCell>
        <mxCell id="KUwgGPyPyFjpWA1K0ViN-163" style="edgeStyle=none;rounded=0;orthogonalLoop=1;jettySize=auto;html=1;exitX=0.5;exitY=1;exitDx=0;exitDy=0;entryX=0;entryY=1;entryDx=0;entryDy=0;fillColor=#f8cecc;strokeColor=#b85450;dashed=1;" edge="1" parent="KUwgGPyPyFjpWA1K0ViN-42" source="KUwgGPyPyFjpWA1K0ViN-59" target="KUwgGPyPyFjpWA1K0ViN-68">
          <mxGeometry relative="1" as="geometry" />
        </mxCell>
        <mxCell id="KUwgGPyPyFjpWA1K0ViN-59" value="" style="ellipse;whiteSpace=wrap;html=1;fillColor=#0000FF;opacity=80;" vertex="1" parent="KUwgGPyPyFjpWA1K0ViN-42">
          <mxGeometry width="3.710087549342206" height="3.784445641301838" as="geometry" />
        </mxCell>
        <mxCell id="KUwgGPyPyFjpWA1K0ViN-60" value="" style="edgeStyle=none;orthogonalLoop=1;jettySize=auto;html=1;rounded=0;labelBackgroundColor=default;strokeColor=#FF66B3;strokeWidth=3;fontFamily=Helvetica;fontSize=11;fontColor=default;endArrow=none;shape=connector;opacity=80;exitX=0.673;exitY=1.226;exitDx=0;exitDy=0;exitPerimeter=0;" edge="1" parent="KUwgGPyPyFjpWA1K0ViN-42" source="KUwgGPyPyFjpWA1K0ViN-59" target="KUwgGPyPyFjpWA1K0ViN-58">
          <mxGeometry width="100" relative="1" as="geometry">
            <mxPoint x="7.7105336634876664" y="4.001191044087136" as="sourcePoint" />
            <mxPoint x="54.518420236842616" y="44.48457797953381" as="targetPoint" />
            <Array as="points" />
          </mxGeometry>
        </mxCell>
        <mxCell id="KUwgGPyPyFjpWA1K0ViN-61" value="" style="edgeStyle=none;orthogonalLoop=1;jettySize=auto;html=1;rounded=0;labelBackgroundColor=default;strokeColor=#005700;strokeWidth=3;fontFamily=Helvetica;fontSize=11;fontColor=default;endArrow=none;shape=connector;exitX=0.677;exitY=0.061;exitDx=0;exitDy=0;exitPerimeter=0;opacity=80;entryX=0.5;entryY=1;entryDx=0;entryDy=0;fillColor=#008a00;" edge="1" parent="KUwgGPyPyFjpWA1K0ViN-42" source="KUwgGPyPyFjpWA1K0ViN-58" target="KUwgGPyPyFjpWA1K0ViN-48">
          <mxGeometry width="100" relative="1" as="geometry">
            <mxPoint x="44.87219260855281" y="29.64361468031086" as="sourcePoint" />
            <mxPoint x="44.649587355592274" y="26.972241286450753" as="targetPoint" />
            <Array as="points" />
          </mxGeometry>
        </mxCell>
        <mxCell id="KUwgGPyPyFjpWA1K0ViN-62" value="" style="ellipse;whiteSpace=wrap;html=1;fillColor=#0000FF;opacity=80;" vertex="1" parent="KUwgGPyPyFjpWA1K0ViN-42">
          <mxGeometry x="50.1584202368426" y="88.70457797953384" width="3.710087549342206" height="3.784445641301838" as="geometry" />
        </mxCell>
        <mxCell id="KUwgGPyPyFjpWA1K0ViN-63" value="" style="edgeStyle=none;orthogonalLoop=1;jettySize=auto;html=1;rounded=0;labelBackgroundColor=default;strokeColor=#006600;strokeWidth=3;fontFamily=Helvetica;fontSize=11;fontColor=default;endArrow=none;shape=connector;exitX=0.5;exitY=0;exitDx=0;exitDy=0;entryX=0.5;entryY=1;entryDx=0;entryDy=0;opacity=80;" edge="1" parent="KUwgGPyPyFjpWA1K0ViN-42" source="KUwgGPyPyFjpWA1K0ViN-62" target="KUwgGPyPyFjpWA1K0ViN-52">
          <mxGeometry width="100" relative="1" as="geometry">
            <mxPoint x="62.680612845395416" y="48.19481880433955" as="sourcePoint" />
            <mxPoint x="70.10078794407988" y="48.19481880433955" as="targetPoint" />
            <Array as="points" />
          </mxGeometry>
        </mxCell>
        <mxCell id="KUwgGPyPyFjpWA1K0ViN-64" value="" style="ellipse;whiteSpace=wrap;html=1;fillColor=#0000FF;opacity=80;" vertex="1" parent="KUwgGPyPyFjpWA1K0ViN-42">
          <mxGeometry x="56.06540233947436" y="111.48457797953381" width="3.710087549342206" height="3.784445641301838" as="geometry" />
        </mxCell>
        <mxCell id="KUwgGPyPyFjpWA1K0ViN-65" value="" style="ellipse;whiteSpace=wrap;html=1;fillColor=#0000FF;opacity=80;" vertex="1" parent="KUwgGPyPyFjpWA1K0ViN-42">
          <mxGeometry x="38.711438134210766" y="108.70457797953384" width="3.710087549342206" height="3.784445641301838" as="geometry" />
        </mxCell>
        <mxCell id="KUwgGPyPyFjpWA1K0ViN-66" value="" style="edgeStyle=none;orthogonalLoop=1;jettySize=auto;html=1;rounded=0;labelBackgroundColor=default;strokeColor=#006600;strokeWidth=3;fontFamily=Helvetica;fontSize=11;fontColor=default;endArrow=none;shape=connector;entryX=0;entryY=0.5;entryDx=0;entryDy=0;exitX=1;exitY=0.5;exitDx=0;exitDy=0;opacity=80;" edge="1" parent="KUwgGPyPyFjpWA1K0ViN-42" source="KUwgGPyPyFjpWA1K0ViN-65" target="KUwgGPyPyFjpWA1K0ViN-62">
          <mxGeometry width="100" relative="1" as="geometry">
            <mxPoint x="51.55035019736883" y="46.344892729091384" as="sourcePoint" />
            <mxPoint x="58.970525296053296" y="46.344892729091384" as="targetPoint" />
            <Array as="points" />
          </mxGeometry>
        </mxCell>
        <mxCell id="KUwgGPyPyFjpWA1K0ViN-67" value="" style="edgeStyle=none;orthogonalLoop=1;jettySize=auto;html=1;rounded=0;labelBackgroundColor=default;strokeColor=#006600;strokeWidth=3;fontFamily=Helvetica;fontSize=11;fontColor=default;endArrow=none;shape=connector;exitX=1;exitY=0.5;exitDx=0;exitDy=0;entryX=0;entryY=0.5;entryDx=0;entryDy=0;opacity=80;" edge="1" parent="KUwgGPyPyFjpWA1K0ViN-42" source="KUwgGPyPyFjpWA1K0ViN-62" target="KUwgGPyPyFjpWA1K0ViN-64">
          <mxGeometry width="100" relative="1" as="geometry">
            <mxPoint x="55.26043774671106" y="56.357348618912056" as="sourcePoint" />
            <mxPoint x="62.680612845395416" y="56.357348618912056" as="targetPoint" />
            <Array as="points" />
          </mxGeometry>
        </mxCell>
        <mxCell id="KUwgGPyPyFjpWA1K0ViN-68" value="" style="ellipse;whiteSpace=wrap;html=1;fillColor=#0000FF;opacity=80;" vertex="1" parent="KUwgGPyPyFjpWA1K0ViN-42">
          <mxGeometry x="33.71421011842119" y="160.21987843348472" width="3.710087549342206" height="3.784445641301838" as="geometry" />
        </mxCell>
        <mxCell id="KUwgGPyPyFjpWA1K0ViN-69" value="" style="ellipse;whiteSpace=wrap;html=1;fillColor=#0000FF;opacity=80;" vertex="1" parent="KUwgGPyPyFjpWA1K0ViN-42">
          <mxGeometry x="45.712630355263855" y="161.21987843348472" width="3.710087549342206" height="3.784445641301838" as="geometry" />
        </mxCell>
        <mxCell id="KUwgGPyPyFjpWA1K0ViN-70" value="" style="edgeStyle=none;orthogonalLoop=1;jettySize=auto;html=1;rounded=0;labelBackgroundColor=default;strokeColor=#006600;strokeWidth=3;fontFamily=Helvetica;fontSize=11;fontColor=default;endArrow=none;shape=connector;exitX=0.5;exitY=0;exitDx=0;exitDy=0;opacity=80;" edge="1" parent="KUwgGPyPyFjpWA1K0ViN-42" source="KUwgGPyPyFjpWA1K0ViN-68" target="KUwgGPyPyFjpWA1K0ViN-65">
          <mxGeometry width="100" relative="1" as="geometry">
            <mxPoint x="53.77640272697417" y="59.32554127875676" as="sourcePoint" />
            <mxPoint x="61.19657782565852" y="59.32554127875676" as="targetPoint" />
            <Array as="points" />
          </mxGeometry>
        </mxCell>
        <mxCell id="KUwgGPyPyFjpWA1K0ViN-71" value="" style="edgeStyle=none;orthogonalLoop=1;jettySize=auto;html=1;rounded=0;labelBackgroundColor=default;strokeColor=#006600;strokeWidth=3;fontFamily=Helvetica;fontSize=11;fontColor=default;endArrow=none;shape=connector;exitX=0.5;exitY=1;exitDx=0;exitDy=0;opacity=80;" edge="1" parent="KUwgGPyPyFjpWA1K0ViN-42" source="KUwgGPyPyFjpWA1K0ViN-64" target="KUwgGPyPyFjpWA1K0ViN-69">
          <mxGeometry width="100" relative="1" as="geometry">
            <mxPoint x="61.19657782565852" y="60.809637608679054" as="sourcePoint" />
            <mxPoint x="68.61675292434299" y="60.809637608679054" as="targetPoint" />
            <Array as="points" />
          </mxGeometry>
        </mxCell>
        <mxCell id="KUwgGPyPyFjpWA1K0ViN-72" value="" style="ellipse;whiteSpace=wrap;html=1;fillColor=#0000FF;opacity=80;" vertex="1" parent="KUwgGPyPyFjpWA1K0ViN-42">
          <mxGeometry x="37.42263035526392" y="209.0046972378242" width="3.710087549342206" height="3.784445641301838" as="geometry" />
        </mxCell>
        <mxCell id="KUwgGPyPyFjpWA1K0ViN-73" value="" style="edgeStyle=none;orthogonalLoop=1;jettySize=auto;html=1;rounded=0;labelBackgroundColor=default;strokeColor=#006600;strokeWidth=3;fontFamily=Helvetica;fontSize=11;fontColor=default;endArrow=none;shape=connector;entryX=0.5;entryY=1;entryDx=0;entryDy=0;opacity=80;exitX=0;exitY=0;exitDx=0;exitDy=0;" edge="1" parent="KUwgGPyPyFjpWA1K0ViN-42" source="KUwgGPyPyFjpWA1K0ViN-74" target="KUwgGPyPyFjpWA1K0ViN-68">
          <mxGeometry width="100" relative="1" as="geometry">
            <mxPoint x="48.710533663487666" y="206.00119104408714" as="sourcePoint" />
            <mxPoint x="57.4864902763164" y="80.10288989766877" as="targetPoint" />
            <Array as="points" />
          </mxGeometry>
        </mxCell>
        <mxCell id="KUwgGPyPyFjpWA1K0ViN-74" value="" style="ellipse;whiteSpace=wrap;html=1;fillColor=#0000FF;opacity=80;" vertex="1" parent="KUwgGPyPyFjpWA1K0ViN-42">
          <mxGeometry x="57.03850778618485" y="205.21674540278536" width="3.710087549342206" height="3.784445641301838" as="geometry" />
        </mxCell>
        <mxCell id="KUwgGPyPyFjpWA1K0ViN-75" value="" style="edgeStyle=none;orthogonalLoop=1;jettySize=auto;html=1;rounded=0;labelBackgroundColor=default;strokeColor=#A50040;strokeWidth=3;fontFamily=Helvetica;fontSize=11;fontColor=default;endArrow=none;shape=connector;exitX=0;exitY=1;exitDx=0;exitDy=0;opacity=80;entryX=1;entryY=0;entryDx=0;entryDy=0;fillColor=#d80073;" edge="1" parent="KUwgGPyPyFjpWA1K0ViN-42" source="KUwgGPyPyFjpWA1K0ViN-74" target="KUwgGPyPyFjpWA1K0ViN-72">
          <mxGeometry width="100" relative="1" as="geometry">
            <mxPoint x="56.744472766447956" y="91.23361237208587" as="sourcePoint" />
            <mxPoint x="64.16464786513231" y="91.23361237208587" as="targetPoint" />
            <Array as="points" />
          </mxGeometry>
        </mxCell>
        <mxCell id="KUwgGPyPyFjpWA1K0ViN-76" value="" style="ellipse;whiteSpace=wrap;html=1;fillColor=#0000FF;opacity=80;" vertex="1" parent="KUwgGPyPyFjpWA1K0ViN-42">
          <mxGeometry x="73.71263035526388" y="208.9998784334847" width="3.710087549342206" height="3.784445641301838" as="geometry" />
        </mxCell>
        <mxCell id="KUwgGPyPyFjpWA1K0ViN-77" value="" style="ellipse;whiteSpace=wrap;html=1;fillColor=#0000FF;opacity=80;" vertex="1" parent="KUwgGPyPyFjpWA1K0ViN-42">
          <mxGeometry x="54.23263035526389" y="224.55987843348464" width="3.710087549342206" height="3.784445641301838" as="geometry" />
        </mxCell>
        <mxCell id="KUwgGPyPyFjpWA1K0ViN-78" value="" style="endArrow=none;html=1;rounded=0;exitX=0.5;exitY=1;exitDx=0;exitDy=0;entryX=0.5;entryY=0;entryDx=0;entryDy=0;strokeColor=#006600;strokeWidth=3;opacity=80;" edge="1" parent="KUwgGPyPyFjpWA1K0ViN-42" source="KUwgGPyPyFjpWA1K0ViN-69" target="KUwgGPyPyFjpWA1K0ViN-76">
          <mxGeometry width="50" height="50" relative="1" as="geometry">
            <mxPoint x="114.71053366348767" y="184.00119104408714" as="sourcePoint" />
            <mxPoint x="164.71053366348767" y="134.00119104408714" as="targetPoint" />
          </mxGeometry>
        </mxCell>
        <mxCell id="KUwgGPyPyFjpWA1K0ViN-79" value="" style="endArrow=none;html=1;rounded=0;entryX=0.5;entryY=1;entryDx=0;entryDy=0;exitX=1;exitY=0.5;exitDx=0;exitDy=0;strokeColor=#006600;strokeWidth=3;opacity=80;" edge="1" parent="KUwgGPyPyFjpWA1K0ViN-42" source="KUwgGPyPyFjpWA1K0ViN-77" target="KUwgGPyPyFjpWA1K0ViN-76">
          <mxGeometry width="50" height="50" relative="1" as="geometry">
            <mxPoint x="34.710533663487666" y="224.00119104408714" as="sourcePoint" />
            <mxPoint x="84.71053366348767" y="174.00119104408714" as="targetPoint" />
          </mxGeometry>
        </mxCell>
        <mxCell id="KUwgGPyPyFjpWA1K0ViN-164" style="edgeStyle=none;rounded=0;orthogonalLoop=1;jettySize=auto;html=1;exitX=0.5;exitY=1;exitDx=0;exitDy=0;entryX=0;entryY=0;entryDx=0;entryDy=0;fillColor=#f8cecc;strokeColor=#b85450;dashed=1;" edge="1" parent="KUwgGPyPyFjpWA1K0ViN-42" source="KUwgGPyPyFjpWA1K0ViN-59" target="KUwgGPyPyFjpWA1K0ViN-72">
          <mxGeometry relative="1" as="geometry" />
        </mxCell>
        <mxCell id="KUwgGPyPyFjpWA1K0ViN-80" value="" style="group" vertex="1" connectable="0" parent="KUwgGPyPyFjpWA1K0ViN-156">
          <mxGeometry x="97.47000000000003" y="70" width="79.26053366348765" height="228.34432407478653" as="geometry" />
        </mxCell>
        <mxCell id="KUwgGPyPyFjpWA1K0ViN-81" value="" style="ellipse;whiteSpace=wrap;html=1;fillColor=#0000FF;opacity=80;" vertex="1" parent="KUwgGPyPyFjpWA1K0ViN-80">
          <mxGeometry x="55.42631517763189" y="3.7124105562822933" width="3.710087549342206" height="3.7102408248057235" as="geometry" />
        </mxCell>
        <mxCell id="KUwgGPyPyFjpWA1K0ViN-82" value="" style="ellipse;whiteSpace=wrap;html=1;fillColor=#0000FF;opacity=80;" vertex="1" parent="KUwgGPyPyFjpWA1K0ViN-80">
          <mxGeometry x="67.28640272697416" y="13.028795875971468" width="3.710087549342206" height="3.784445641301838" as="geometry" />
        </mxCell>
        <mxCell id="KUwgGPyPyFjpWA1K0ViN-83" value="" style="endArrow=none;html=1;rounded=0;exitX=0.3;exitY=0.059;exitDx=0;exitDy=0;entryX=1;entryY=1;entryDx=0;entryDy=0;exitPerimeter=0;strokeWidth=3;strokeColor=#006600;opacity=80;" edge="1" parent="KUwgGPyPyFjpWA1K0ViN-80" source="KUwgGPyPyFjpWA1K0ViN-82" target="KUwgGPyPyFjpWA1K0ViN-81">
          <mxGeometry width="50" height="50" relative="1" as="geometry">
            <mxPoint x="64.16464786513231" y="29.64361468031086" as="sourcePoint" />
            <mxPoint x="67.87473541447454" y="25.933373855505238" as="targetPoint" />
          </mxGeometry>
        </mxCell>
        <mxCell id="KUwgGPyPyFjpWA1K0ViN-84" value="" style="ellipse;whiteSpace=wrap;html=1;fillColor=#0000FF;opacity=80;" vertex="1" parent="KUwgGPyPyFjpWA1K0ViN-80">
          <mxGeometry x="60.748420236842605" y="32.62313303069948" width="3.710087549342206" height="3.784445641301838" as="geometry" />
        </mxCell>
        <mxCell id="KUwgGPyPyFjpWA1K0ViN-85" value="" style="ellipse;whiteSpace=wrap;html=1;fillColor=#0000FF;opacity=80;" vertex="1" parent="KUwgGPyPyFjpWA1K0ViN-80">
          <mxGeometry x="75.55044611414544" y="41.217229360621786" width="3.710087549342206" height="3.784445641301838" as="geometry" />
        </mxCell>
        <mxCell id="KUwgGPyPyFjpWA1K0ViN-86" value="" style="ellipse;whiteSpace=wrap;html=1;fillColor=#0000FF;opacity=80;" vertex="1" parent="KUwgGPyPyFjpWA1K0ViN-80">
          <mxGeometry x="41.13017509868456" y="36.40722936062184" width="3.710087549342206" height="3.784445641301838" as="geometry" />
        </mxCell>
        <mxCell id="KUwgGPyPyFjpWA1K0ViN-87" value="" style="endArrow=none;html=1;rounded=0;entryX=0.7;entryY=0.974;entryDx=0;entryDy=0;strokeWidth=3;entryPerimeter=0;exitX=0.5;exitY=0;exitDx=0;exitDy=0;fontSize=11;fillColor=#0000FF;strokeColor=#006600;opacity=80;" edge="1" parent="KUwgGPyPyFjpWA1K0ViN-80" source="KUwgGPyPyFjpWA1K0ViN-84" target="KUwgGPyPyFjpWA1K0ViN-82">
          <mxGeometry width="50" height="50" relative="1" as="geometry">
            <mxPoint x="64.313051367106" y="17.770844040932616" as="sourcePoint" />
            <mxPoint x="62.680439920415864" y="14.802478448964393" as="targetPoint" />
          </mxGeometry>
        </mxCell>
        <mxCell id="KUwgGPyPyFjpWA1K0ViN-88" value="" style="edgeStyle=none;orthogonalLoop=1;jettySize=auto;html=1;rounded=0;labelBackgroundColor=default;strokeColor=#005700;strokeWidth=3;fontFamily=Helvetica;fontSize=11;fontColor=default;endArrow=none;shape=connector;exitX=1;exitY=0.5;exitDx=0;exitDy=0;entryX=0;entryY=0.5;entryDx=0;entryDy=0;opacity=80;fillColor=#008a00;" edge="1" parent="KUwgGPyPyFjpWA1K0ViN-80" source="KUwgGPyPyFjpWA1K0ViN-86" target="KUwgGPyPyFjpWA1K0ViN-84">
          <mxGeometry width="100" relative="1" as="geometry">
            <mxPoint x="49.32429766776349" y="26.310334323305483" as="sourcePoint" />
            <mxPoint x="55.03783249375053" y="25.413940140032423" as="targetPoint" />
            <Array as="points" />
          </mxGeometry>
        </mxCell>
        <mxCell id="KUwgGPyPyFjpWA1K0ViN-89" value="" style="edgeStyle=none;orthogonalLoop=1;jettySize=auto;html=1;rounded=0;labelBackgroundColor=default;strokeColor=#006600;strokeWidth=3;fontFamily=Helvetica;fontSize=11;fontColor=default;endArrow=none;shape=connector;exitX=1;exitY=0.5;exitDx=0;exitDy=0;entryX=0.02;entryY=0.386;entryDx=0;entryDy=0;entryPerimeter=0;opacity=80;" edge="1" parent="KUwgGPyPyFjpWA1K0ViN-80" source="KUwgGPyPyFjpWA1K0ViN-84" target="KUwgGPyPyFjpWA1K0ViN-85">
          <mxGeometry width="100" relative="1" as="geometry">
            <mxPoint x="60.454560315790076" y="33.3538555051166" as="sourcePoint" />
            <mxPoint x="67.87473541447454" y="33.3538555051166" as="targetPoint" />
            <Array as="points" />
          </mxGeometry>
        </mxCell>
        <mxCell id="KUwgGPyPyFjpWA1K0ViN-90" value="" style="ellipse;whiteSpace=wrap;html=1;fillColor=#0000FF;opacity=80;" vertex="1" parent="KUwgGPyPyFjpWA1K0ViN-80">
          <mxGeometry x="48.57842023684256" y="49.55975917519436" width="3.710087549342206" height="3.784445641301838" as="geometry" />
        </mxCell>
        <mxCell id="KUwgGPyPyFjpWA1K0ViN-91" value="" style="edgeStyle=none;orthogonalLoop=1;jettySize=auto;html=1;rounded=0;labelBackgroundColor=default;strokeColor=#006600;strokeWidth=3;fontFamily=Helvetica;fontSize=11;fontColor=default;endArrow=none;shape=connector;exitX=0.5;exitY=0;exitDx=0;exitDy=0;entryX=0.5;entryY=1;entryDx=0;entryDy=0;opacity=80;" edge="1" parent="KUwgGPyPyFjpWA1K0ViN-80" source="KUwgGPyPyFjpWA1K0ViN-90" target="KUwgGPyPyFjpWA1K0ViN-84">
          <mxGeometry width="100" relative="1" as="geometry">
            <mxPoint x="60.454560315790076" y="39.29024082480578" as="sourcePoint" />
            <mxPoint x="67.87473541447454" y="39.29024082480578" as="targetPoint" />
            <Array as="points" />
          </mxGeometry>
        </mxCell>
        <mxCell id="KUwgGPyPyFjpWA1K0ViN-92" value="" style="ellipse;whiteSpace=wrap;html=1;fillColor=#0000FF;opacity=80;" vertex="1" parent="KUwgGPyPyFjpWA1K0ViN-80">
          <mxGeometry x="72.58044611414545" y="84.57180734015537" width="3.710087549342206" height="3.784445641301838" as="geometry" />
        </mxCell>
        <mxCell id="KUwgGPyPyFjpWA1K0ViN-93" value="" style="edgeStyle=none;orthogonalLoop=1;jettySize=auto;html=1;rounded=0;labelBackgroundColor=default;strokeColor=#006600;strokeWidth=3;fontFamily=Helvetica;fontSize=11;fontColor=default;endArrow=none;shape=connector;exitX=1;exitY=1;exitDx=0;exitDy=0;opacity=80;" edge="1" parent="KUwgGPyPyFjpWA1K0ViN-80" source="KUwgGPyPyFjpWA1K0ViN-85" target="KUwgGPyPyFjpWA1K0ViN-92">
          <mxGeometry width="100" relative="1" as="geometry">
            <mxPoint x="73.81087549342212" y="35.58000000000004" as="sourcePoint" />
            <mxPoint x="81.23105059210647" y="35.58000000000004" as="targetPoint" />
            <Array as="points" />
          </mxGeometry>
        </mxCell>
        <mxCell id="KUwgGPyPyFjpWA1K0ViN-94" value="" style="ellipse;whiteSpace=wrap;html=1;fillColor=#0000FF;opacity=80;" vertex="1" parent="KUwgGPyPyFjpWA1K0ViN-80">
          <mxGeometry x="59.77219260855287" y="127.78590243902443" width="3.710087549342206" height="3.784445641301838" as="geometry" />
        </mxCell>
        <mxCell id="KUwgGPyPyFjpWA1K0ViN-95" value="" style="edgeStyle=none;orthogonalLoop=1;jettySize=auto;html=1;rounded=0;labelBackgroundColor=default;strokeColor=#006600;strokeWidth=3;fontFamily=Helvetica;fontSize=11;fontColor=default;endArrow=none;shape=connector;opacity=80;exitX=0.584;exitY=0.29;exitDx=0;exitDy=0;exitPerimeter=0;" edge="1" parent="KUwgGPyPyFjpWA1K0ViN-80" source="KUwgGPyPyFjpWA1K0ViN-94" target="KUwgGPyPyFjpWA1K0ViN-92">
          <mxGeometry width="100" relative="1" as="geometry">
            <mxPoint x="71.71053366348767" y="124.00119104408714" as="sourcePoint" />
            <mxPoint x="79.74701557236958" y="45.22662614449496" as="targetPoint" />
            <Array as="points" />
          </mxGeometry>
        </mxCell>
        <mxCell id="KUwgGPyPyFjpWA1K0ViN-96" value="" style="ellipse;whiteSpace=wrap;html=1;fillColor=#0000FF;opacity=80;" vertex="1" parent="KUwgGPyPyFjpWA1K0ViN-80">
          <mxGeometry x="7.710087549342205" y="29.833614680310916" width="3.710087549342206" height="3.784445641301838" as="geometry" />
        </mxCell>
        <mxCell id="KUwgGPyPyFjpWA1K0ViN-97" value="" style="ellipse;whiteSpace=wrap;html=1;fillColor=#0000FF;opacity=80;" vertex="1" parent="KUwgGPyPyFjpWA1K0ViN-80">
          <mxGeometry width="3.710087549342206" height="3.784445641301838" as="geometry" />
        </mxCell>
        <mxCell id="KUwgGPyPyFjpWA1K0ViN-98" value="" style="edgeStyle=none;orthogonalLoop=1;jettySize=auto;html=1;rounded=0;labelBackgroundColor=default;strokeColor=#FF66B3;strokeWidth=3;fontFamily=Helvetica;fontSize=11;fontColor=default;endArrow=none;shape=connector;opacity=80;exitX=0.673;exitY=1.226;exitDx=0;exitDy=0;exitPerimeter=0;" edge="1" parent="KUwgGPyPyFjpWA1K0ViN-80" source="KUwgGPyPyFjpWA1K0ViN-97" target="KUwgGPyPyFjpWA1K0ViN-96">
          <mxGeometry width="100" relative="1" as="geometry">
            <mxPoint x="7.7105336634876664" y="4.001191044087136" as="sourcePoint" />
            <mxPoint x="54.518420236842616" y="44.48457797953381" as="targetPoint" />
            <Array as="points" />
          </mxGeometry>
        </mxCell>
        <mxCell id="KUwgGPyPyFjpWA1K0ViN-99" value="" style="edgeStyle=none;orthogonalLoop=1;jettySize=auto;html=1;rounded=0;labelBackgroundColor=default;strokeColor=#005700;strokeWidth=3;fontFamily=Helvetica;fontSize=11;fontColor=default;endArrow=none;shape=connector;exitX=0.677;exitY=0.061;exitDx=0;exitDy=0;exitPerimeter=0;opacity=80;entryX=0.5;entryY=1;entryDx=0;entryDy=0;fillColor=#008a00;" edge="1" parent="KUwgGPyPyFjpWA1K0ViN-80" source="KUwgGPyPyFjpWA1K0ViN-96" target="KUwgGPyPyFjpWA1K0ViN-86">
          <mxGeometry width="100" relative="1" as="geometry">
            <mxPoint x="44.87219260855281" y="29.64361468031086" as="sourcePoint" />
            <mxPoint x="44.649587355592274" y="26.972241286450753" as="targetPoint" />
            <Array as="points" />
          </mxGeometry>
        </mxCell>
        <mxCell id="KUwgGPyPyFjpWA1K0ViN-100" value="" style="ellipse;whiteSpace=wrap;html=1;fillColor=#0000FF;opacity=80;" vertex="1" parent="KUwgGPyPyFjpWA1K0ViN-80">
          <mxGeometry x="50.1584202368426" y="88.70457797953384" width="3.710087549342206" height="3.784445641301838" as="geometry" />
        </mxCell>
        <mxCell id="KUwgGPyPyFjpWA1K0ViN-101" value="" style="edgeStyle=none;orthogonalLoop=1;jettySize=auto;html=1;rounded=0;labelBackgroundColor=default;strokeColor=#006600;strokeWidth=3;fontFamily=Helvetica;fontSize=11;fontColor=default;endArrow=none;shape=connector;exitX=0.5;exitY=0;exitDx=0;exitDy=0;entryX=0.5;entryY=1;entryDx=0;entryDy=0;opacity=80;" edge="1" parent="KUwgGPyPyFjpWA1K0ViN-80" source="KUwgGPyPyFjpWA1K0ViN-100" target="KUwgGPyPyFjpWA1K0ViN-90">
          <mxGeometry width="100" relative="1" as="geometry">
            <mxPoint x="62.680612845395416" y="48.19481880433955" as="sourcePoint" />
            <mxPoint x="70.10078794407988" y="48.19481880433955" as="targetPoint" />
            <Array as="points" />
          </mxGeometry>
        </mxCell>
        <mxCell id="KUwgGPyPyFjpWA1K0ViN-102" value="" style="ellipse;whiteSpace=wrap;html=1;fillColor=#0000FF;opacity=80;" vertex="1" parent="KUwgGPyPyFjpWA1K0ViN-80">
          <mxGeometry x="56.06540233947436" y="111.48457797953381" width="3.710087549342206" height="3.784445641301838" as="geometry" />
        </mxCell>
        <mxCell id="KUwgGPyPyFjpWA1K0ViN-103" value="" style="ellipse;whiteSpace=wrap;html=1;fillColor=#0000FF;opacity=80;" vertex="1" parent="KUwgGPyPyFjpWA1K0ViN-80">
          <mxGeometry x="38.711438134210766" y="108.70457797953384" width="3.710087549342206" height="3.784445641301838" as="geometry" />
        </mxCell>
        <mxCell id="KUwgGPyPyFjpWA1K0ViN-104" value="" style="edgeStyle=none;orthogonalLoop=1;jettySize=auto;html=1;rounded=0;labelBackgroundColor=default;strokeColor=#006600;strokeWidth=3;fontFamily=Helvetica;fontSize=11;fontColor=default;endArrow=none;shape=connector;entryX=0;entryY=0.5;entryDx=0;entryDy=0;exitX=1;exitY=0.5;exitDx=0;exitDy=0;opacity=80;" edge="1" parent="KUwgGPyPyFjpWA1K0ViN-80" source="KUwgGPyPyFjpWA1K0ViN-103" target="KUwgGPyPyFjpWA1K0ViN-100">
          <mxGeometry width="100" relative="1" as="geometry">
            <mxPoint x="51.55035019736883" y="46.344892729091384" as="sourcePoint" />
            <mxPoint x="58.970525296053296" y="46.344892729091384" as="targetPoint" />
            <Array as="points" />
          </mxGeometry>
        </mxCell>
        <mxCell id="KUwgGPyPyFjpWA1K0ViN-105" value="" style="edgeStyle=none;orthogonalLoop=1;jettySize=auto;html=1;rounded=0;labelBackgroundColor=default;strokeColor=#006600;strokeWidth=3;fontFamily=Helvetica;fontSize=11;fontColor=default;endArrow=none;shape=connector;exitX=1;exitY=0.5;exitDx=0;exitDy=0;entryX=0;entryY=0.5;entryDx=0;entryDy=0;opacity=80;" edge="1" parent="KUwgGPyPyFjpWA1K0ViN-80" source="KUwgGPyPyFjpWA1K0ViN-100" target="KUwgGPyPyFjpWA1K0ViN-102">
          <mxGeometry width="100" relative="1" as="geometry">
            <mxPoint x="55.26043774671106" y="56.357348618912056" as="sourcePoint" />
            <mxPoint x="62.680612845395416" y="56.357348618912056" as="targetPoint" />
            <Array as="points" />
          </mxGeometry>
        </mxCell>
        <mxCell id="KUwgGPyPyFjpWA1K0ViN-106" value="" style="ellipse;whiteSpace=wrap;html=1;fillColor=#0000FF;opacity=80;" vertex="1" parent="KUwgGPyPyFjpWA1K0ViN-80">
          <mxGeometry x="33.71421011842119" y="160.21987843348472" width="3.710087549342206" height="3.784445641301838" as="geometry" />
        </mxCell>
        <mxCell id="KUwgGPyPyFjpWA1K0ViN-107" value="" style="ellipse;whiteSpace=wrap;html=1;fillColor=#0000FF;opacity=80;" vertex="1" parent="KUwgGPyPyFjpWA1K0ViN-80">
          <mxGeometry x="45.712630355263855" y="161.21987843348472" width="3.710087549342206" height="3.784445641301838" as="geometry" />
        </mxCell>
        <mxCell id="KUwgGPyPyFjpWA1K0ViN-108" value="" style="edgeStyle=none;orthogonalLoop=1;jettySize=auto;html=1;rounded=0;labelBackgroundColor=default;strokeColor=#006600;strokeWidth=3;fontFamily=Helvetica;fontSize=11;fontColor=default;endArrow=none;shape=connector;exitX=0.5;exitY=0;exitDx=0;exitDy=0;opacity=80;" edge="1" parent="KUwgGPyPyFjpWA1K0ViN-80" source="KUwgGPyPyFjpWA1K0ViN-106" target="KUwgGPyPyFjpWA1K0ViN-103">
          <mxGeometry width="100" relative="1" as="geometry">
            <mxPoint x="53.77640272697417" y="59.32554127875676" as="sourcePoint" />
            <mxPoint x="61.19657782565852" y="59.32554127875676" as="targetPoint" />
            <Array as="points" />
          </mxGeometry>
        </mxCell>
        <mxCell id="KUwgGPyPyFjpWA1K0ViN-109" value="" style="edgeStyle=none;orthogonalLoop=1;jettySize=auto;html=1;rounded=0;labelBackgroundColor=default;strokeColor=#006600;strokeWidth=3;fontFamily=Helvetica;fontSize=11;fontColor=default;endArrow=none;shape=connector;exitX=0.5;exitY=1;exitDx=0;exitDy=0;opacity=80;" edge="1" parent="KUwgGPyPyFjpWA1K0ViN-80" source="KUwgGPyPyFjpWA1K0ViN-102" target="KUwgGPyPyFjpWA1K0ViN-107">
          <mxGeometry width="100" relative="1" as="geometry">
            <mxPoint x="61.19657782565852" y="60.809637608679054" as="sourcePoint" />
            <mxPoint x="68.61675292434299" y="60.809637608679054" as="targetPoint" />
            <Array as="points" />
          </mxGeometry>
        </mxCell>
        <mxCell id="KUwgGPyPyFjpWA1K0ViN-110" value="" style="ellipse;whiteSpace=wrap;html=1;fillColor=#0000FF;opacity=80;" vertex="1" parent="KUwgGPyPyFjpWA1K0ViN-80">
          <mxGeometry x="18.42263035526392" y="209.0046972378242" width="3.710087549342206" height="3.784445641301838" as="geometry" />
        </mxCell>
        <mxCell id="KUwgGPyPyFjpWA1K0ViN-111" value="" style="edgeStyle=none;orthogonalLoop=1;jettySize=auto;html=1;rounded=0;labelBackgroundColor=default;strokeColor=#006600;strokeWidth=3;fontFamily=Helvetica;fontSize=11;fontColor=default;endArrow=none;shape=connector;entryX=0.5;entryY=1;entryDx=0;entryDy=0;opacity=80;exitX=0;exitY=0;exitDx=0;exitDy=0;" edge="1" parent="KUwgGPyPyFjpWA1K0ViN-80" source="KUwgGPyPyFjpWA1K0ViN-112" target="KUwgGPyPyFjpWA1K0ViN-106">
          <mxGeometry width="100" relative="1" as="geometry">
            <mxPoint x="48.710533663487666" y="206.00119104408714" as="sourcePoint" />
            <mxPoint x="57.4864902763164" y="80.10288989766877" as="targetPoint" />
            <Array as="points" />
          </mxGeometry>
        </mxCell>
        <mxCell id="KUwgGPyPyFjpWA1K0ViN-112" value="" style="ellipse;whiteSpace=wrap;html=1;fillColor=#0000FF;opacity=80;" vertex="1" parent="KUwgGPyPyFjpWA1K0ViN-80">
          <mxGeometry x="38.03850778618485" y="205.21674540278536" width="3.710087549342206" height="3.784445641301838" as="geometry" />
        </mxCell>
        <mxCell id="KUwgGPyPyFjpWA1K0ViN-113" value="" style="edgeStyle=none;orthogonalLoop=1;jettySize=auto;html=1;rounded=0;labelBackgroundColor=default;strokeColor=#A50040;strokeWidth=3;fontFamily=Helvetica;fontSize=11;fontColor=default;endArrow=none;shape=connector;exitX=0;exitY=1;exitDx=0;exitDy=0;opacity=80;entryX=1;entryY=0;entryDx=0;entryDy=0;fillColor=#d80073;" edge="1" parent="KUwgGPyPyFjpWA1K0ViN-80">
          <mxGeometry width="100" relative="1" as="geometry">
            <mxPoint x="38.568888365984776" y="208.43363141830696" as="sourcePoint" />
            <mxPoint x="21.602337324653035" y="209.57225686375705" as="targetPoint" />
            <Array as="points" />
          </mxGeometry>
        </mxCell>
        <mxCell id="KUwgGPyPyFjpWA1K0ViN-114" value="" style="ellipse;whiteSpace=wrap;html=1;fillColor=#0000FF;opacity=80;" vertex="1" parent="KUwgGPyPyFjpWA1K0ViN-80">
          <mxGeometry x="73.71263035526388" y="208.9998784334847" width="3.710087549342206" height="3.784445641301838" as="geometry" />
        </mxCell>
        <mxCell id="KUwgGPyPyFjpWA1K0ViN-115" value="" style="ellipse;whiteSpace=wrap;html=1;fillColor=#0000FF;opacity=80;" vertex="1" parent="KUwgGPyPyFjpWA1K0ViN-80">
          <mxGeometry x="54.23263035526389" y="224.55987843348464" width="3.710087549342206" height="3.784445641301838" as="geometry" />
        </mxCell>
        <mxCell id="KUwgGPyPyFjpWA1K0ViN-116" value="" style="endArrow=none;html=1;rounded=0;exitX=0.5;exitY=1;exitDx=0;exitDy=0;entryX=0.5;entryY=0;entryDx=0;entryDy=0;strokeColor=#006600;strokeWidth=3;opacity=80;" edge="1" parent="KUwgGPyPyFjpWA1K0ViN-80" source="KUwgGPyPyFjpWA1K0ViN-107" target="KUwgGPyPyFjpWA1K0ViN-114">
          <mxGeometry width="50" height="50" relative="1" as="geometry">
            <mxPoint x="114.71053366348767" y="184.00119104408714" as="sourcePoint" />
            <mxPoint x="164.71053366348767" y="134.00119104408714" as="targetPoint" />
          </mxGeometry>
        </mxCell>
        <mxCell id="KUwgGPyPyFjpWA1K0ViN-117" value="" style="endArrow=none;html=1;rounded=0;entryX=0.5;entryY=1;entryDx=0;entryDy=0;exitX=1;exitY=0.5;exitDx=0;exitDy=0;strokeColor=#006600;strokeWidth=3;opacity=80;" edge="1" parent="KUwgGPyPyFjpWA1K0ViN-80" source="KUwgGPyPyFjpWA1K0ViN-115" target="KUwgGPyPyFjpWA1K0ViN-114">
          <mxGeometry width="50" height="50" relative="1" as="geometry">
            <mxPoint x="34.710533663487666" y="224.00119104408714" as="sourcePoint" />
            <mxPoint x="84.71053366348767" y="174.00119104408714" as="targetPoint" />
          </mxGeometry>
        </mxCell>
        <mxCell id="KUwgGPyPyFjpWA1K0ViN-118" value="" style="group" vertex="1" connectable="0" parent="KUwgGPyPyFjpWA1K0ViN-156">
          <mxGeometry x="192.14" y="150" width="79.26053366348765" height="228.34432407478653" as="geometry" />
        </mxCell>
        <mxCell id="KUwgGPyPyFjpWA1K0ViN-119" value="" style="ellipse;whiteSpace=wrap;html=1;fillColor=#0000FF;opacity=80;" vertex="1" parent="KUwgGPyPyFjpWA1K0ViN-118">
          <mxGeometry x="55.42631517763189" y="3.7124105562822933" width="3.710087549342206" height="3.7102408248057235" as="geometry" />
        </mxCell>
        <mxCell id="KUwgGPyPyFjpWA1K0ViN-120" value="" style="ellipse;whiteSpace=wrap;html=1;fillColor=#0000FF;opacity=80;" vertex="1" parent="KUwgGPyPyFjpWA1K0ViN-118">
          <mxGeometry x="67.28640272697416" y="13.028795875971468" width="3.710087549342206" height="3.784445641301838" as="geometry" />
        </mxCell>
        <mxCell id="KUwgGPyPyFjpWA1K0ViN-121" value="" style="endArrow=none;html=1;rounded=0;exitX=0.3;exitY=0.059;exitDx=0;exitDy=0;entryX=1;entryY=1;entryDx=0;entryDy=0;exitPerimeter=0;strokeWidth=3;strokeColor=#006600;opacity=80;" edge="1" parent="KUwgGPyPyFjpWA1K0ViN-118" source="KUwgGPyPyFjpWA1K0ViN-120" target="KUwgGPyPyFjpWA1K0ViN-119">
          <mxGeometry width="50" height="50" relative="1" as="geometry">
            <mxPoint x="64.16464786513231" y="29.64361468031086" as="sourcePoint" />
            <mxPoint x="67.87473541447454" y="25.933373855505238" as="targetPoint" />
          </mxGeometry>
        </mxCell>
        <mxCell id="KUwgGPyPyFjpWA1K0ViN-122" value="" style="ellipse;whiteSpace=wrap;html=1;fillColor=#0000FF;opacity=80;" vertex="1" parent="KUwgGPyPyFjpWA1K0ViN-118">
          <mxGeometry x="60.748420236842605" y="32.62313303069948" width="3.710087549342206" height="3.784445641301838" as="geometry" />
        </mxCell>
        <mxCell id="KUwgGPyPyFjpWA1K0ViN-123" value="" style="ellipse;whiteSpace=wrap;html=1;fillColor=#0000FF;opacity=80;" vertex="1" parent="KUwgGPyPyFjpWA1K0ViN-118">
          <mxGeometry x="75.55044611414544" y="41.217229360621786" width="3.710087549342206" height="3.784445641301838" as="geometry" />
        </mxCell>
        <mxCell id="KUwgGPyPyFjpWA1K0ViN-124" value="" style="ellipse;whiteSpace=wrap;html=1;fillColor=#0000FF;opacity=80;" vertex="1" parent="KUwgGPyPyFjpWA1K0ViN-118">
          <mxGeometry x="41.13017509868456" y="36.40722936062184" width="3.710087549342206" height="3.784445641301838" as="geometry" />
        </mxCell>
        <mxCell id="KUwgGPyPyFjpWA1K0ViN-125" value="" style="endArrow=none;html=1;rounded=0;entryX=0.7;entryY=0.974;entryDx=0;entryDy=0;strokeWidth=3;entryPerimeter=0;exitX=0.5;exitY=0;exitDx=0;exitDy=0;fontSize=11;fillColor=#0000FF;strokeColor=#006600;opacity=80;" edge="1" parent="KUwgGPyPyFjpWA1K0ViN-118" source="KUwgGPyPyFjpWA1K0ViN-122" target="KUwgGPyPyFjpWA1K0ViN-120">
          <mxGeometry width="50" height="50" relative="1" as="geometry">
            <mxPoint x="64.313051367106" y="17.770844040932616" as="sourcePoint" />
            <mxPoint x="62.680439920415864" y="14.802478448964393" as="targetPoint" />
          </mxGeometry>
        </mxCell>
        <mxCell id="KUwgGPyPyFjpWA1K0ViN-126" value="" style="edgeStyle=none;orthogonalLoop=1;jettySize=auto;html=1;rounded=0;labelBackgroundColor=default;strokeColor=#005700;strokeWidth=3;fontFamily=Helvetica;fontSize=11;fontColor=default;endArrow=none;shape=connector;exitX=1;exitY=0.5;exitDx=0;exitDy=0;entryX=0;entryY=0.5;entryDx=0;entryDy=0;opacity=80;fillColor=#008a00;" edge="1" parent="KUwgGPyPyFjpWA1K0ViN-118" source="KUwgGPyPyFjpWA1K0ViN-124" target="KUwgGPyPyFjpWA1K0ViN-122">
          <mxGeometry width="100" relative="1" as="geometry">
            <mxPoint x="49.32429766776349" y="26.310334323305483" as="sourcePoint" />
            <mxPoint x="55.03783249375053" y="25.413940140032423" as="targetPoint" />
            <Array as="points" />
          </mxGeometry>
        </mxCell>
        <mxCell id="KUwgGPyPyFjpWA1K0ViN-127" value="" style="edgeStyle=none;orthogonalLoop=1;jettySize=auto;html=1;rounded=0;labelBackgroundColor=default;strokeColor=#006600;strokeWidth=3;fontFamily=Helvetica;fontSize=11;fontColor=default;endArrow=none;shape=connector;exitX=1;exitY=0.5;exitDx=0;exitDy=0;entryX=0.02;entryY=0.386;entryDx=0;entryDy=0;entryPerimeter=0;opacity=80;" edge="1" parent="KUwgGPyPyFjpWA1K0ViN-118" source="KUwgGPyPyFjpWA1K0ViN-122" target="KUwgGPyPyFjpWA1K0ViN-123">
          <mxGeometry width="100" relative="1" as="geometry">
            <mxPoint x="60.454560315790076" y="33.3538555051166" as="sourcePoint" />
            <mxPoint x="67.87473541447454" y="33.3538555051166" as="targetPoint" />
            <Array as="points" />
          </mxGeometry>
        </mxCell>
        <mxCell id="KUwgGPyPyFjpWA1K0ViN-128" value="" style="ellipse;whiteSpace=wrap;html=1;fillColor=#0000FF;opacity=80;" vertex="1" parent="KUwgGPyPyFjpWA1K0ViN-118">
          <mxGeometry x="48.57842023684256" y="49.55975917519436" width="3.710087549342206" height="3.784445641301838" as="geometry" />
        </mxCell>
        <mxCell id="KUwgGPyPyFjpWA1K0ViN-129" value="" style="edgeStyle=none;orthogonalLoop=1;jettySize=auto;html=1;rounded=0;labelBackgroundColor=default;strokeColor=#006600;strokeWidth=3;fontFamily=Helvetica;fontSize=11;fontColor=default;endArrow=none;shape=connector;exitX=0.5;exitY=0;exitDx=0;exitDy=0;entryX=0.5;entryY=1;entryDx=0;entryDy=0;opacity=80;" edge="1" parent="KUwgGPyPyFjpWA1K0ViN-118" source="KUwgGPyPyFjpWA1K0ViN-128" target="KUwgGPyPyFjpWA1K0ViN-122">
          <mxGeometry width="100" relative="1" as="geometry">
            <mxPoint x="60.454560315790076" y="39.29024082480578" as="sourcePoint" />
            <mxPoint x="67.87473541447454" y="39.29024082480578" as="targetPoint" />
            <Array as="points" />
          </mxGeometry>
        </mxCell>
        <mxCell id="KUwgGPyPyFjpWA1K0ViN-130" value="" style="ellipse;whiteSpace=wrap;html=1;fillColor=#0000FF;opacity=80;" vertex="1" parent="KUwgGPyPyFjpWA1K0ViN-118">
          <mxGeometry x="72.58044611414545" y="84.57180734015537" width="3.710087549342206" height="3.784445641301838" as="geometry" />
        </mxCell>
        <mxCell id="KUwgGPyPyFjpWA1K0ViN-131" value="" style="edgeStyle=none;orthogonalLoop=1;jettySize=auto;html=1;rounded=0;labelBackgroundColor=default;strokeColor=#006600;strokeWidth=3;fontFamily=Helvetica;fontSize=11;fontColor=default;endArrow=none;shape=connector;exitX=1;exitY=1;exitDx=0;exitDy=0;opacity=80;" edge="1" parent="KUwgGPyPyFjpWA1K0ViN-118" source="KUwgGPyPyFjpWA1K0ViN-123" target="KUwgGPyPyFjpWA1K0ViN-130">
          <mxGeometry width="100" relative="1" as="geometry">
            <mxPoint x="73.81087549342212" y="35.58000000000004" as="sourcePoint" />
            <mxPoint x="81.23105059210647" y="35.58000000000004" as="targetPoint" />
            <Array as="points" />
          </mxGeometry>
        </mxCell>
        <mxCell id="KUwgGPyPyFjpWA1K0ViN-132" value="" style="ellipse;whiteSpace=wrap;html=1;fillColor=#0000FF;opacity=80;" vertex="1" parent="KUwgGPyPyFjpWA1K0ViN-118">
          <mxGeometry x="59.77219260855287" y="127.78590243902443" width="3.710087549342206" height="3.784445641301838" as="geometry" />
        </mxCell>
        <mxCell id="KUwgGPyPyFjpWA1K0ViN-133" value="" style="edgeStyle=none;orthogonalLoop=1;jettySize=auto;html=1;rounded=0;labelBackgroundColor=default;strokeColor=#006600;strokeWidth=3;fontFamily=Helvetica;fontSize=11;fontColor=default;endArrow=none;shape=connector;opacity=80;exitX=0.584;exitY=0.29;exitDx=0;exitDy=0;exitPerimeter=0;" edge="1" parent="KUwgGPyPyFjpWA1K0ViN-118" source="KUwgGPyPyFjpWA1K0ViN-132" target="KUwgGPyPyFjpWA1K0ViN-130">
          <mxGeometry width="100" relative="1" as="geometry">
            <mxPoint x="71.71053366348767" y="124.00119104408714" as="sourcePoint" />
            <mxPoint x="79.74701557236958" y="45.22662614449496" as="targetPoint" />
            <Array as="points" />
          </mxGeometry>
        </mxCell>
        <mxCell id="KUwgGPyPyFjpWA1K0ViN-134" value="" style="ellipse;whiteSpace=wrap;html=1;fillColor=#0000FF;opacity=80;" vertex="1" parent="KUwgGPyPyFjpWA1K0ViN-118">
          <mxGeometry x="7.710087549342205" y="29.833614680310916" width="3.710087549342206" height="3.784445641301838" as="geometry" />
        </mxCell>
        <mxCell id="KUwgGPyPyFjpWA1K0ViN-135" value="" style="ellipse;whiteSpace=wrap;html=1;fillColor=#0000FF;opacity=80;" vertex="1" parent="KUwgGPyPyFjpWA1K0ViN-118">
          <mxGeometry width="3.710087549342206" height="3.784445641301838" as="geometry" />
        </mxCell>
        <mxCell id="KUwgGPyPyFjpWA1K0ViN-136" value="" style="edgeStyle=none;orthogonalLoop=1;jettySize=auto;html=1;rounded=0;labelBackgroundColor=default;strokeColor=#FF66B3;strokeWidth=3;fontFamily=Helvetica;fontSize=11;fontColor=default;endArrow=none;shape=connector;opacity=80;exitX=0.673;exitY=1.226;exitDx=0;exitDy=0;exitPerimeter=0;" edge="1" parent="KUwgGPyPyFjpWA1K0ViN-118" source="KUwgGPyPyFjpWA1K0ViN-135" target="KUwgGPyPyFjpWA1K0ViN-134">
          <mxGeometry width="100" relative="1" as="geometry">
            <mxPoint x="7.7105336634876664" y="4.001191044087136" as="sourcePoint" />
            <mxPoint x="54.518420236842616" y="44.48457797953381" as="targetPoint" />
            <Array as="points" />
          </mxGeometry>
        </mxCell>
        <mxCell id="KUwgGPyPyFjpWA1K0ViN-137" value="" style="edgeStyle=none;orthogonalLoop=1;jettySize=auto;html=1;rounded=0;labelBackgroundColor=default;strokeColor=#005700;strokeWidth=3;fontFamily=Helvetica;fontSize=11;fontColor=default;endArrow=none;shape=connector;exitX=0.677;exitY=0.061;exitDx=0;exitDy=0;exitPerimeter=0;opacity=80;entryX=0.5;entryY=1;entryDx=0;entryDy=0;fillColor=#008a00;" edge="1" parent="KUwgGPyPyFjpWA1K0ViN-118" source="KUwgGPyPyFjpWA1K0ViN-134" target="KUwgGPyPyFjpWA1K0ViN-124">
          <mxGeometry width="100" relative="1" as="geometry">
            <mxPoint x="44.87219260855281" y="29.64361468031086" as="sourcePoint" />
            <mxPoint x="44.649587355592274" y="26.972241286450753" as="targetPoint" />
            <Array as="points" />
          </mxGeometry>
        </mxCell>
        <mxCell id="KUwgGPyPyFjpWA1K0ViN-138" value="" style="ellipse;whiteSpace=wrap;html=1;fillColor=#0000FF;opacity=80;" vertex="1" parent="KUwgGPyPyFjpWA1K0ViN-118">
          <mxGeometry x="50.1584202368426" y="88.70457797953384" width="3.710087549342206" height="3.784445641301838" as="geometry" />
        </mxCell>
        <mxCell id="KUwgGPyPyFjpWA1K0ViN-139" value="" style="edgeStyle=none;orthogonalLoop=1;jettySize=auto;html=1;rounded=0;labelBackgroundColor=default;strokeColor=#006600;strokeWidth=3;fontFamily=Helvetica;fontSize=11;fontColor=default;endArrow=none;shape=connector;exitX=0.5;exitY=0;exitDx=0;exitDy=0;entryX=0.5;entryY=1;entryDx=0;entryDy=0;opacity=80;" edge="1" parent="KUwgGPyPyFjpWA1K0ViN-118" source="KUwgGPyPyFjpWA1K0ViN-138" target="KUwgGPyPyFjpWA1K0ViN-128">
          <mxGeometry width="100" relative="1" as="geometry">
            <mxPoint x="62.680612845395416" y="48.19481880433955" as="sourcePoint" />
            <mxPoint x="70.10078794407988" y="48.19481880433955" as="targetPoint" />
            <Array as="points" />
          </mxGeometry>
        </mxCell>
        <mxCell id="KUwgGPyPyFjpWA1K0ViN-140" value="" style="ellipse;whiteSpace=wrap;html=1;fillColor=#0000FF;opacity=80;" vertex="1" parent="KUwgGPyPyFjpWA1K0ViN-118">
          <mxGeometry x="56.06540233947436" y="111.48457797953381" width="3.710087549342206" height="3.784445641301838" as="geometry" />
        </mxCell>
        <mxCell id="KUwgGPyPyFjpWA1K0ViN-141" value="" style="ellipse;whiteSpace=wrap;html=1;fillColor=#0000FF;opacity=80;" vertex="1" parent="KUwgGPyPyFjpWA1K0ViN-118">
          <mxGeometry x="38.711438134210766" y="108.70457797953384" width="3.710087549342206" height="3.784445641301838" as="geometry" />
        </mxCell>
        <mxCell id="KUwgGPyPyFjpWA1K0ViN-142" value="" style="edgeStyle=none;orthogonalLoop=1;jettySize=auto;html=1;rounded=0;labelBackgroundColor=default;strokeColor=#006600;strokeWidth=3;fontFamily=Helvetica;fontSize=11;fontColor=default;endArrow=none;shape=connector;entryX=0;entryY=0.5;entryDx=0;entryDy=0;exitX=1;exitY=0.5;exitDx=0;exitDy=0;opacity=80;" edge="1" parent="KUwgGPyPyFjpWA1K0ViN-118" source="KUwgGPyPyFjpWA1K0ViN-141" target="KUwgGPyPyFjpWA1K0ViN-138">
          <mxGeometry width="100" relative="1" as="geometry">
            <mxPoint x="51.55035019736883" y="46.344892729091384" as="sourcePoint" />
            <mxPoint x="58.970525296053296" y="46.344892729091384" as="targetPoint" />
            <Array as="points" />
          </mxGeometry>
        </mxCell>
        <mxCell id="KUwgGPyPyFjpWA1K0ViN-143" value="" style="edgeStyle=none;orthogonalLoop=1;jettySize=auto;html=1;rounded=0;labelBackgroundColor=default;strokeColor=#006600;strokeWidth=3;fontFamily=Helvetica;fontSize=11;fontColor=default;endArrow=none;shape=connector;exitX=1;exitY=0.5;exitDx=0;exitDy=0;entryX=0;entryY=0.5;entryDx=0;entryDy=0;opacity=80;" edge="1" parent="KUwgGPyPyFjpWA1K0ViN-118" source="KUwgGPyPyFjpWA1K0ViN-138" target="KUwgGPyPyFjpWA1K0ViN-140">
          <mxGeometry width="100" relative="1" as="geometry">
            <mxPoint x="55.26043774671106" y="56.357348618912056" as="sourcePoint" />
            <mxPoint x="62.680612845395416" y="56.357348618912056" as="targetPoint" />
            <Array as="points" />
          </mxGeometry>
        </mxCell>
        <mxCell id="KUwgGPyPyFjpWA1K0ViN-144" value="" style="ellipse;whiteSpace=wrap;html=1;fillColor=#0000FF;opacity=80;" vertex="1" parent="KUwgGPyPyFjpWA1K0ViN-118">
          <mxGeometry x="33.71421011842119" y="160.21987843348472" width="3.710087549342206" height="3.784445641301838" as="geometry" />
        </mxCell>
        <mxCell id="KUwgGPyPyFjpWA1K0ViN-145" value="" style="ellipse;whiteSpace=wrap;html=1;fillColor=#0000FF;opacity=80;" vertex="1" parent="KUwgGPyPyFjpWA1K0ViN-118">
          <mxGeometry x="45.712630355263855" y="161.21987843348472" width="3.710087549342206" height="3.784445641301838" as="geometry" />
        </mxCell>
        <mxCell id="KUwgGPyPyFjpWA1K0ViN-146" value="" style="edgeStyle=none;orthogonalLoop=1;jettySize=auto;html=1;rounded=0;labelBackgroundColor=default;strokeColor=#006600;strokeWidth=3;fontFamily=Helvetica;fontSize=11;fontColor=default;endArrow=none;shape=connector;exitX=0.5;exitY=0;exitDx=0;exitDy=0;opacity=80;" edge="1" parent="KUwgGPyPyFjpWA1K0ViN-118" source="KUwgGPyPyFjpWA1K0ViN-144" target="KUwgGPyPyFjpWA1K0ViN-141">
          <mxGeometry width="100" relative="1" as="geometry">
            <mxPoint x="53.77640272697417" y="59.32554127875676" as="sourcePoint" />
            <mxPoint x="61.19657782565852" y="59.32554127875676" as="targetPoint" />
            <Array as="points" />
          </mxGeometry>
        </mxCell>
        <mxCell id="KUwgGPyPyFjpWA1K0ViN-147" value="" style="edgeStyle=none;orthogonalLoop=1;jettySize=auto;html=1;rounded=0;labelBackgroundColor=default;strokeColor=#006600;strokeWidth=3;fontFamily=Helvetica;fontSize=11;fontColor=default;endArrow=none;shape=connector;exitX=0.5;exitY=1;exitDx=0;exitDy=0;opacity=80;" edge="1" parent="KUwgGPyPyFjpWA1K0ViN-118" source="KUwgGPyPyFjpWA1K0ViN-140" target="KUwgGPyPyFjpWA1K0ViN-145">
          <mxGeometry width="100" relative="1" as="geometry">
            <mxPoint x="61.19657782565852" y="60.809637608679054" as="sourcePoint" />
            <mxPoint x="68.61675292434299" y="60.809637608679054" as="targetPoint" />
            <Array as="points" />
          </mxGeometry>
        </mxCell>
        <mxCell id="KUwgGPyPyFjpWA1K0ViN-148" value="" style="ellipse;whiteSpace=wrap;html=1;fillColor=#0000FF;opacity=80;" vertex="1" parent="KUwgGPyPyFjpWA1K0ViN-118">
          <mxGeometry x="0.002630355263918638" y="186.2146972378242" width="3.710087549342206" height="3.784445641301838" as="geometry" />
        </mxCell>
        <mxCell id="KUwgGPyPyFjpWA1K0ViN-149" value="" style="edgeStyle=none;orthogonalLoop=1;jettySize=auto;html=1;rounded=0;labelBackgroundColor=default;strokeColor=#006600;strokeWidth=3;fontFamily=Helvetica;fontSize=11;fontColor=default;endArrow=none;shape=connector;entryX=0.5;entryY=1;entryDx=0;entryDy=0;opacity=80;exitX=0;exitY=0;exitDx=0;exitDy=0;" edge="1" parent="KUwgGPyPyFjpWA1K0ViN-118" source="KUwgGPyPyFjpWA1K0ViN-150" target="KUwgGPyPyFjpWA1K0ViN-144">
          <mxGeometry width="100" relative="1" as="geometry">
            <mxPoint x="48.710533663487666" y="206.00119104408714" as="sourcePoint" />
            <mxPoint x="57.4864902763164" y="80.10288989766877" as="targetPoint" />
            <Array as="points" />
          </mxGeometry>
        </mxCell>
        <mxCell id="KUwgGPyPyFjpWA1K0ViN-150" value="" style="ellipse;whiteSpace=wrap;html=1;fillColor=#0000FF;opacity=80;" vertex="1" parent="KUwgGPyPyFjpWA1K0ViN-118">
          <mxGeometry x="28.19850778618485" y="186.21674540278536" width="3.710087549342206" height="3.784445641301838" as="geometry" />
        </mxCell>
        <mxCell id="KUwgGPyPyFjpWA1K0ViN-151" value="" style="edgeStyle=none;orthogonalLoop=1;jettySize=auto;html=1;rounded=0;labelBackgroundColor=default;strokeColor=#A50040;strokeWidth=3;fontFamily=Helvetica;fontSize=11;fontColor=default;endArrow=none;shape=connector;exitX=0;exitY=1;exitDx=0;exitDy=0;opacity=80;entryX=1;entryY=0;entryDx=0;entryDy=0;fillColor=#d80073;" edge="1" parent="KUwgGPyPyFjpWA1K0ViN-118" source="KUwgGPyPyFjpWA1K0ViN-150" target="KUwgGPyPyFjpWA1K0ViN-148">
          <mxGeometry width="100" relative="1" as="geometry">
            <mxPoint x="56.744472766447956" y="91.23361237208587" as="sourcePoint" />
            <mxPoint x="64.16464786513231" y="91.23361237208587" as="targetPoint" />
            <Array as="points" />
          </mxGeometry>
        </mxCell>
        <mxCell id="KUwgGPyPyFjpWA1K0ViN-152" value="" style="ellipse;whiteSpace=wrap;html=1;fillColor=#0000FF;opacity=80;" vertex="1" parent="KUwgGPyPyFjpWA1K0ViN-118">
          <mxGeometry x="73.71263035526388" y="208.9998784334847" width="3.710087549342206" height="3.784445641301838" as="geometry" />
        </mxCell>
        <mxCell id="KUwgGPyPyFjpWA1K0ViN-153" value="" style="ellipse;whiteSpace=wrap;html=1;fillColor=#0000FF;opacity=80;" vertex="1" parent="KUwgGPyPyFjpWA1K0ViN-118">
          <mxGeometry x="54.23263035526389" y="224.55987843348464" width="3.710087549342206" height="3.784445641301838" as="geometry" />
        </mxCell>
        <mxCell id="KUwgGPyPyFjpWA1K0ViN-154" value="" style="endArrow=none;html=1;rounded=0;exitX=0.5;exitY=1;exitDx=0;exitDy=0;entryX=0.5;entryY=0;entryDx=0;entryDy=0;strokeColor=#006600;strokeWidth=3;opacity=80;" edge="1" parent="KUwgGPyPyFjpWA1K0ViN-118" source="KUwgGPyPyFjpWA1K0ViN-145" target="KUwgGPyPyFjpWA1K0ViN-152">
          <mxGeometry width="50" height="50" relative="1" as="geometry">
            <mxPoint x="114.71053366348767" y="184.00119104408714" as="sourcePoint" />
            <mxPoint x="164.71053366348767" y="134.00119104408714" as="targetPoint" />
          </mxGeometry>
        </mxCell>
        <mxCell id="KUwgGPyPyFjpWA1K0ViN-155" value="" style="endArrow=none;html=1;rounded=0;entryX=0.5;entryY=1;entryDx=0;entryDy=0;exitX=1;exitY=0.5;exitDx=0;exitDy=0;strokeColor=#006600;strokeWidth=3;opacity=80;" edge="1" parent="KUwgGPyPyFjpWA1K0ViN-118" source="KUwgGPyPyFjpWA1K0ViN-153" target="KUwgGPyPyFjpWA1K0ViN-152">
          <mxGeometry width="50" height="50" relative="1" as="geometry">
            <mxPoint x="34.710533663487666" y="224.00119104408714" as="sourcePoint" />
            <mxPoint x="84.71053366348767" y="174.00119104408714" as="targetPoint" />
          </mxGeometry>
        </mxCell>
        <mxCell id="KUwgGPyPyFjpWA1K0ViN-158" style="rounded=0;orthogonalLoop=1;jettySize=auto;html=1;exitX=1;exitY=0.5;exitDx=0;exitDy=0;entryX=0;entryY=0;entryDx=0;entryDy=0;dashed=1;" edge="1" parent="KUwgGPyPyFjpWA1K0ViN-156" source="KUwgGPyPyFjpWA1K0ViN-59" target="KUwgGPyPyFjpWA1K0ViN-135">
          <mxGeometry relative="1" as="geometry" />
        </mxCell>
        <mxCell id="KUwgGPyPyFjpWA1K0ViN-159" style="rounded=0;orthogonalLoop=1;jettySize=auto;html=1;exitX=1;exitY=1;exitDx=0;exitDy=0;entryX=0.5;entryY=0;entryDx=0;entryDy=0;dashed=1;" edge="1" parent="KUwgGPyPyFjpWA1K0ViN-156" source="KUwgGPyPyFjpWA1K0ViN-72" target="KUwgGPyPyFjpWA1K0ViN-110">
          <mxGeometry relative="1" as="geometry" />
        </mxCell>
        <mxCell id="KUwgGPyPyFjpWA1K0ViN-160" style="rounded=0;orthogonalLoop=1;jettySize=auto;html=1;exitX=1;exitY=1;exitDx=0;exitDy=0;entryX=0;entryY=0;entryDx=0;entryDy=0;dashed=1;" edge="1" parent="KUwgGPyPyFjpWA1K0ViN-156" source="KUwgGPyPyFjpWA1K0ViN-72" target="KUwgGPyPyFjpWA1K0ViN-148">
          <mxGeometry relative="1" as="geometry" />
        </mxCell>
      </root>
    </mxGraphModel>
  </diagram>
</mxfile>
